<?xml version="1.0" encoding="UTF-8" standalone="no"?>
<!-- Created with Inkscape (http://www.inkscape.org/) -->

<svg
   version="1.1"
   id="svg2"
   width="207.87334"
   height="83.150002"
   viewBox="0 0 207.87334 83.150002"
   sodipodi:docname="tud_logo.eps"
   xmlns:inkscape="http://www.inkscape.org/namespaces/inkscape"
   xmlns:sodipodi="http://sodipodi.sourceforge.net/DTD/sodipodi-0.dtd"
   xmlns="http://www.w3.org/2000/svg"
   xmlns:svg="http://www.w3.org/2000/svg">
  <defs
     id="defs6" />
  <sodipodi:namedview
     id="namedview4"
     pagecolor="#505050"
     bordercolor="#ffffff"
     borderopacity="1"
     inkscape:showpageshadow="0"
     inkscape:pageopacity="0"
     inkscape:pagecheckerboard="1"
     inkscape:deskcolor="#505050"
     showgrid="false" />
  <g
     id="g10"
     inkscape:groupmode="layer"
     inkscape:label="Page 1"
     transform="matrix(1.3333333,0,0,-1.3333333,-0.66666662,83.816665)">
    <g
       id="g12"
       transform="scale(0.1)">
      <path
         d="M 5,628.625 H 1564.05 V 5 H 5 v 623.625"
         style="fill:#ffffff;fill-opacity:1;fill-rule:nonzero;stroke:none"
         id="path14" />
      <path
         d="m 458.254,106.129 c -5.117,2.117 -14.047,4.762 -23.34,7.226 0.305,-5.144 0.945,-9.855 1.844,-14.0269 7.18,1.8989 14.359,4.1559 21.496,6.8009 z m -23.524,11.629 c 11.512,-3.024 24.02,-6.668 28.86,-9.574 4.098,1.636 8.183,3.402 12.242,5.308 -7.312,3.93 -24.586,9.391 -40.937,13.977 -0.18,-3.36 -0.231,-6.602 -0.165,-9.711 z m 29.598,-13.813 c -0.18,-0.101 -0.367,-0.175 -0.566,-0.218 -12.883,-5.0512 -25.926,-8.8442 -38.91,-11.52 -0.196,-0.0781 -0.407,-0.1211 -0.633,-0.1328 -11.969,-2.4336 -23.887,-3.9258 -35.574,-4.582 -0.196,-0.0469 -0.403,-0.0625 -0.618,-0.0352 -39.191,-2.1211 -75.797,5.1016 -103.254,17.43 l -0.941,0.429 c -0.266,0.059 -0.508,0.176 -0.715,0.329 -46.719,21.652 -67.793,60.023 -22.101,90.964 -4.688,7.836 -10.879,15.102 -16.938,22.993 -1.941,2.523 -3.906,5.144 -5.855,7.89 -3.618,-9.601 -4.039,-15.781 2.054,-24.449 0.7,-0.996 0.45,-2.012 -0.195,-2.66 L 207.5,161.348 c -0.855,-1.028 -2.273,-1.055 -3.168,-0.075 -162.9726,178.602 22.75,449.532 247.09,371.575 1.371,-0.473 1.859,-1.832 1.113,-3.078 l -35.18,-58.293 c -0.359,-0.782 -1.152,-1.356 -2.285,-1.141 -10.925,2.043 -17.617,1.414 -22.324,-3.113 10.125,-1.758 20.578,-4.426 31.328,-8.082 9.598,10.601 19.785,20.429 30.785,29.218 0.145,0.141 0.309,0.266 0.489,0.368 0.57,0.355 1.156,0.394 1.668,0.226 0.519,-0.133 0.988,-0.484 1.277,-1.094 0.098,-0.179 0.168,-0.367 0.211,-0.57 l 20.23,-59.379 c 0.207,-0.469 0.254,-1 0.079,-1.5 -0.168,-0.496 -0.532,-0.887 -0.981,-1.133 -0.66,-0.433 -1.312,-0.867 -1.965,-1.312 4.156,-12.524 33.156,-99.723 42.094,-123.199 2.805,-7.352 8.973,-20.731 9.082,-28.524 0.109,-7.949 -5.398,-11.621 -16.723,-12.437 -5.629,-5.414 -6.48,-7.379 -3.441,-11.407 6.035,-7.988 2.699,-11.597 -4.024,-16.972 6.524,-5.27 5.047,-14.77 1.825,-14.922 -4.715,-0.219 -6.508,-1.691 -9.188,-5.449 20.676,-20.328 3.586,-37.672 -23.937,-43.481 -8.707,-1.84 -18.75,-2.687 -29.578,-2.308 -0.02,-0.11 -0.047,-0.223 -0.082,-0.34 -3.715,-11.649 -5.821,-22.887 -6.7,-33.168 18.457,-5.153 40.266,-11.953 46,-16.766 0.196,-0.133 0.371,-0.304 0.516,-0.496 0.437,-0.512 0.555,-1.09 0.461,-1.621 -0.063,-0.535 -0.344,-1.055 -0.902,-1.426 -0.176,-0.125 -0.372,-0.23 -0.579,-0.301 -5.414,-2.636 -10.875,-5.035 -16.363,-7.203 z m -193.023,79.801 c 0.105,-0.234 0.179,-0.484 0.199,-0.742 1.32,-5.016 1.914,-10.426 1.523,-16.434 12.817,8.782 9.645,23.461 5.864,30.399 -3.286,-2.199 -6.641,-4.297 -10.063,-6.297 0.973,-2.234 1.809,-4.539 2.477,-6.926 z m -3.352,-4.176 c -9.301,-5.898 -13.644,-12.652 -14.387,-19.406 6.168,0.758 11.102,2.121 15.012,3.914 0.645,5.645 0.36,10.75 -0.625,15.492 z m -14.387,-23.64 c 0.286,-2.711 1.114,-5.387 2.387,-7.977 29.391,0.508 51.422,29.785 35.551,58.176 -2.988,-2.34 -6.031,-4.606 -9.137,-6.777 5.906,-10.688 10.844,-38.852 -28.801,-43.422 z m 4.832,-12.086 c 2.352,-3.36 5.442,-6.504 9.047,-9.293 42.907,12.16 51.836,48.109 34.91,80.629 -2.464,-2.188 -4.972,-4.317 -7.519,-6.391 17.977,-31.101 -5.492,-62.855 -36.438,-64.945 z m 13.45,-12.36 c 4.07,-2.554 8.593,-4.679 13.324,-6.211 52.836,26.723 40.113,81.27 28.043,100.079 -2.504,-2.477 -5.047,-4.899 -7.629,-7.266 18.16,-33.875 9.785,-72.559 -33.738,-86.602 z m 165.101,214.914 c 18.453,7.161 41.141,10.559 58.836,5.012 -7.933,23.34 -16.164,47.957 -20.75,61.723 -0.172,-23.762 -10.965,-46.176 -34.242,-55.617 -0.867,-3.809 -2.133,-7.516 -3.844,-11.118 z m -6.734,-3.511 c 0.086,0.234 0.219,0.453 0.406,0.652 3.051,5 5.074,10.215 6.238,15.66 0.008,0.235 0.055,0.465 0.141,0.684 0.98,4.914 1.27,10.008 0.988,15.308 -0.054,0.231 -0.074,0.473 -0.039,0.711 -0.242,3.832 -0.777,7.774 -1.554,11.817 -2.661,-3.051 -5.278,-6.164 -7.852,-9.336 1.168,-13.563 -2.008,-28.348 -16.34,-41.551 0.442,-4.215 0.469,-8.336 0.121,-12.344 7.961,5.801 13.805,11.918 17.891,18.399 z M 321.859,217.43 c 1.227,4.48 3.61,8.476 6.809,11.656 -1.48,3.098 -2.414,6.258 -3.055,9.273 -3.062,-3.394 -6.183,-6.718 -9.367,-9.961 1.91,-2.855 3.863,-6.585 5.613,-10.968 z m 10.153,14.468 c 2.539,1.793 5.406,3.145 8.496,3.954 -1.649,4.418 -3.031,9.66 -3.68,15.515 -2.519,-3.051 -5.078,-6.058 -7.668,-9.023 0.547,-3.442 1.36,-7.012 2.852,-10.446 z M 231.371,215.867 c 0,4.938 1.59,9.934 3.965,15.793 -10.457,15.582 -20.059,35.406 -23.215,65.145 -0.051,0.207 -0.078,0.422 -0.066,0.633 -0.289,2.82 -0.52,5.734 -0.688,8.742 -0.054,0.222 -0.074,0.457 -0.039,0.703 -0.055,1 -0.098,2.008 -0.137,3.031 -0.367,9.621 0.247,19.344 1.786,28.992 -0.016,0.282 0.031,0.551 0.128,0.797 0.473,2.875 1.032,5.746 1.668,8.602 -0.003,0.289 0.055,0.582 0.192,0.859 6.234,27.211 19.805,53.305 39.512,74.227 0.136,0.203 0.308,0.382 0.507,0.531 5.817,6.113 12.161,11.781 19.004,16.894 l 0.129,0.098 c 10.711,7.988 22.645,14.629 35.68,19.52 0.137,0.074 0.281,0.129 0.422,0.16 15.969,5.945 33.582,9.269 52.629,9.269 1.113,0.114 2.23,0.106 3.32,-0.035 7.027,-0.144 14.246,-0.734 21.648,-1.82 3.286,4.226 7.348,6.449 12.286,7.265 -0.43,0.122 -0.86,0.235 -1.289,0.352 -0.083,0.016 -0.161,0.035 -0.235,0.059 -9.176,2.418 -18.371,3.894 -27.512,4.507 l -0.144,0.004 c -48.531,3.18 -95.367,-18.164 -127.715,-53.726 l -0.094,-0.102 c -6.535,-7.195 -12.476,-14.976 -17.722,-23.246 -0.055,-0.109 -0.118,-0.207 -0.192,-0.305 -4.844,-7.675 -9.086,-15.777 -12.64,-24.238 -0.02,-0.055 -0.043,-0.101 -0.067,-0.156 -3.488,-8.313 -6.312,-16.977 -8.394,-25.918 -8.035,-34.531 -5.016,-73.168 13.617,-112.274 l 0.031,-0.054 c 3.859,-8.098 8.387,-16.207 13.625,-24.309 z m 7.887,17.5 c 0.183,-0.183 0.332,-0.394 0.433,-0.633 1.52,-2.222 3.055,-4.355 4.586,-6.421 8.266,6.378 16.055,13.156 23.446,20.273 -3.645,1.875 -6.961,3.555 -10.016,5.269 -5.687,-5.746 -9.578,-8.347 -19.309,-8.23 -1.589,0.016 -2.457,1.219 -1.984,2.734 1.746,5.575 0.106,18.895 -0.004,25.809 -0.793,1.348 -1.574,2.785 -2.351,4.316 -2.594,-0.539 -5.758,-0.722 -10.071,-0.722 -2.402,0 -3.195,2.035 -1.418,3.656 6.516,5.937 5.539,14.445 6.91,25.391 -3.726,-1.965 -10.468,-6.661 -13.07,-8.52 3.215,-28.758 12.621,-47.828 22.848,-62.922 z m 20.484,-27.265 c 86.102,57.617 120.477,162.527 197.508,228.628 l -11.387,2.293 c -2.242,0.497 -2.242,0.446 -2.004,2.981 l 1.864,16.004 c -71.16,-72.68 -110.879,-191.93 -191.524,-242.547 1.918,-2.465 3.781,-4.902 5.543,-7.359 z m 200.34,263.507 c -3.254,-2.847 -6.437,-5.789 -9.562,-8.828 l -2.348,-19.851 13.207,-2.727 c 2.422,1.996 4.891,3.953 7.402,5.875 l -1.754,5.16 c -3.781,-1.289 -7.886,0.727 -9.175,4.512 -1.289,3.781 0.726,7.887 4.511,9.176 z m -187.57,-224.16 c -8.094,-7.957 -16.629,-15.496 -25.699,-22.496 l 0.605,-0.789 c 1.395,-1.82 2.793,-3.605 4.176,-5.367 42.383,26.449 73.355,72.484 104.133,121.207 26.675,42.226 54.691,89.449 91.058,125.027 0.149,0.215 0.328,0.387 0.531,0.52 3.68,3.578 7.442,7.039 11.301,10.359 l -3.222,9.465 c -14.055,-11.508 -26.829,-24.836 -38.68,-39.16 -0.117,-0.207 -0.27,-0.391 -0.453,-0.547 -22.805,-27.672 -42.211,-59.02 -60.821,-88.18 -9.796,-15.351 -19.738,-30.793 -30.207,-45.847 -0.101,-0.231 -0.242,-0.426 -0.41,-0.594 -4.238,-6.078 -8.562,-12.094 -13.004,-18.012 -0.109,-0.215 -0.246,-0.394 -0.41,-0.543 -3.207,-4.265 -6.476,-8.484 -9.812,-12.64 -0.102,-0.192 -0.246,-0.368 -0.426,-0.528 -4.879,-6.054 -9.906,-11.976 -15.113,-17.73 -0.129,-0.203 -0.289,-0.379 -0.481,-0.528 -4.137,-4.554 -8.387,-8.996 -12.765,-13.32 z m -1.614,4.235 c 3.149,3.125 6.235,6.312 9.25,9.55 -19.628,3.207 -30.437,12.461 -34.757,24.063 -2.703,-2.59 -4.84,-4.336 -7.282,-5.488 0.621,-1.204 1.246,-2.336 1.879,-3.411 0.246,-0.226 0.442,-0.531 0.543,-0.906 7.926,-13.004 16.758,-16.793 30.367,-23.808 z m 12.696,13.304 c 3.226,3.571 6.386,7.207 9.476,10.895 -36.015,-10.235 -58.781,46.566 2.762,69.883 -4.434,1.5 -8.894,3.129 -13.25,5.023 -39.996,-17.91 -53.344,-78.766 1.012,-85.801 z m 15.039,17.676 c 3.156,3.93 6.246,7.922 9.281,11.953 1.449,10.625 -1.293,22.465 -14.551,28.399 -3.769,-1.938 -7.179,-4.262 -9.953,-7.039 19.524,-3.137 19.121,-27.704 1.445,-27.704 -14.648,0 -13.886,18.149 -7.539,27 0.09,0.161 0.2,0.313 0.329,0.442 l 0.054,0.07 c 3.137,4.047 7.813,7.934 14.348,11.254 0.207,0.164 0.449,0.293 0.719,0.359 4.761,2.344 10.476,4.399 17.257,6.008 0.243,0.11 0.508,0.176 0.786,0.18 4.074,0.937 8.523,1.715 13.375,2.305 -3.774,1.703 -8.016,3.234 -12.598,4.75 -2.981,0.988 -6.055,1.961 -9.184,2.964 -66.367,-21.441 -39.711,-79.96 -3.769,-60.941 z m 13.812,18.063 c 2.938,4.011 5.821,8.066 8.668,12.156 -0.82,4.121 -5.312,11.609 -10.722,16.226 -4.09,-0.996 -8.231,-2.261 -12.149,-3.859 10.262,-5.898 13.922,-15.379 14.203,-24.523 z m 11.676,16.511 c 3.055,4.453 6.067,8.942 9.047,13.453 -0.738,0.571 -1.516,1.118 -2.336,1.645 -4.285,-0.356 -9.707,-1 -15.461,-2.133 3.774,-3.851 7.024,-8.769 8.75,-12.965 z m 11.367,16.981 c 3.078,4.699 6.133,9.422 9.168,14.156 -11.605,2.695 -32.683,1.234 -45.816,0.949 4.57,-1.574 9.281,-3.097 14.07,-4.683 7.055,-2.336 13.774,-4.832 19.266,-8.18 0.234,-0.09 0.441,-0.219 0.609,-0.379 0.942,-0.59 1.844,-1.211 2.703,-1.863 z m 11.555,17.89 c 2.168,3.391 4.328,6.789 6.492,10.188 -12.879,4.023 -33.711,3.07 -46.383,2.883 -15.476,-0.235 -31.582,-0.36 -44.172,2.804 6.536,-6.023 14.586,-10.367 23.528,-14.066 6.328,-1.055 22.133,-0.098 27.539,0.051 11.824,0.316 24.789,0.394 32.996,-1.86 z m 8.82,13.856 c 1.832,2.887 3.668,5.765 5.504,8.644 -16.515,6.332 -43.047,4.149 -60.039,4.106 -19.726,-0.055 -39.609,1.273 -52.426,12.09 1.957,-6.485 4.774,-11.891 8.286,-16.485 18.902,-8.105 55.292,-3.918 77.57,-5.011 7.871,-0.387 15.168,-1.297 21.105,-3.344 z m 7.809,12.254 c 1.906,2.976 3.812,5.945 5.726,8.902 -6.578,2.152 -12.988,3.613 -19.339,4.59 -0.219,0 -0.434,0.035 -0.641,0.098 -16.668,2.492 -32.961,1.73 -50.879,1.605 -11.125,-0.082 -21.523,0.328 -30.656,3.227 -0.246,0.027 -0.488,0.105 -0.715,0.226 -7.527,2.512 -14.168,6.774 -19.617,13.926 -0.547,-0.711 -1.086,-1.426 -1.621,-2.148 0.199,-3.485 0.566,-6.747 1.093,-9.809 10.676,-13.965 31.25,-15.973 54.297,-15.914 18.2,0.047 44.989,2.363 62.352,-4.703 z m 51.207,72.34 c 2.019,2.421 4.07,4.808 6.141,7.164 -11.094,3.675 -21.856,6.269 -32.258,7.875 -0.176,0.004 -0.344,0.031 -0.516,0.078 -4.848,0.738 -9.621,1.254 -14.312,1.574 1.82,-2.57 2.894,-6.285 2.671,-11.383 2.481,-2.109 3.907,-5.148 4.223,-8.297 3.059,1.887 7.141,2.473 11.75,0.957 3.805,8.473 15.168,9.782 22.301,2.032 z m -233.297,-250.926 38.527,28.793 c -1.836,3.297 -3.562,6.59 -5.179,9.887 l -32.203,-19.637 c -2.395,-1.461 -4.586,2.133 -2.192,3.594 l 32.57,19.863 c -1.296,2.789 -2.519,5.574 -3.664,8.359 l -44.238,-20.578 c 4.559,-10.234 10.004,-20.351 16.379,-30.281 z m 40.625,25.109 -38.316,-28.64 c 6.414,-9.602 13.707,-19.024 21.929,-28.2 l 30.059,36.012 c -1.988,2.715 -3.895,5.434 -5.723,8.156 l -28.672,-28.359 c -1.996,-1.977 -4.957,1.019 -2.961,2.992 l 29.27,28.949 c -1.961,3.028 -3.82,6.059 -5.586,9.09 z m -58.68,9.035 44.348,20.629 c -1.117,2.903 -2.16,5.797 -3.117,8.688 l -36.227,-10.641 c -2.691,-0.785 -3.879,3.254 -1.183,4.043 l 36.129,10.613 c -1.207,3.922 -2.266,7.84 -3.184,11.743 l -48.086,-10.266 c 2.711,-11.68 6.465,-23.309 11.32,-34.809 z m -12.234,38.918 48.082,10.266 c -0.719,3.418 -1.328,6.832 -1.836,10.219 l -38.289,-3.586 c -2.793,-0.266 -3.187,3.926 -0.395,4.187 l 38.118,3.574 c -0.477,3.829 -0.817,7.633 -1.024,11.407 l -49.121,0.988 c 0.391,-12.312 1.852,-24.703 4.465,-37.055 z m -4.555,41.266 49.028,-0.984 c -0.102,3.351 -0.102,6.675 -0.004,9.976 l -37.942,4.188 c -2.789,0.308 -2.328,4.492 0.461,4.187 l 37.66,-4.164 c 0.235,4.215 0.625,8.391 1.172,12.516 l -47.836,9.851 c -1.812,-11.707 -2.679,-23.593 -2.539,-35.57 z m 3.223,39.723 47.758,-9.832 c 0.515,3.257 1.129,6.472 1.832,9.664 l -36.586,11.523 c -2.676,0.836 -1.41,4.856 1.265,4.012 l 36.282,-11.426 c 0.785,3.168 1.66,6.305 2.625,9.406 L 159.125,387 c -3.992,-11.484 -7.074,-23.289 -9.164,-35.316 z m 10.594,39.312 43.898,-21.918 c 1.07,3.156 2.235,6.274 3.485,9.352 l -33.551,20.562 c -2.391,1.469 -0.188,5.055 2.199,3.586 l 33.008,-20.23 c 1.465,3.355 3.035,6.652 4.707,9.882 l -39.485,30.098 c -5.515,-10.07 -10.289,-20.551 -14.261,-31.332 z M 176.891,426.047 216.305,396 c 1.433,2.613 2.933,5.188 4.496,7.715 l -28.934,27.75 c -2.023,1.941 0.891,4.98 2.918,3.035 l 28.32,-27.156 c 2.122,3.246 4.352,6.422 6.68,9.515 l -33.23,38.375 c -7.266,-9.234 -13.848,-19 -19.664,-29.187 z m 22.343,32.527 33.172,-38.32 c 2.082,2.629 4.239,5.191 6.461,7.684 l -24.594,33.812 c -1.652,2.266 1.754,4.742 3.403,2.473 l 24.086,-33.11 c 2.449,2.621 4.98,5.168 7.582,7.629 l -26.176,45.094 c -8.598,-7.824 -16.598,-16.277 -23.934,-25.262 z m 27.137,28.129 26.145,-45.039 c 2.265,2.043 4.582,4.02 6.949,5.938 l -17.227,39.664 c -1.121,2.578 2.742,4.254 3.86,1.679 l 16.785,-38.648 c 3.004,2.316 6.082,4.527 9.226,6.633 l -17.214,51.152 c -10.067,-6.394 -19.602,-13.551 -28.524,-21.379 z m 32.199,23.656 17.184,-51.058 c 2.711,1.719 5.469,3.359 8.269,4.918 l -10.171,42.636 c -0.653,2.731 3.441,3.708 4.093,0.977 l 9.91,-41.539 c 3,1.566 6.043,3.047 9.129,4.434 l -7.425,55.328 c -10.778,-4.434 -21.129,-9.696 -30.989,-15.696 z m 35.02,17.305 7.41,-55.199 c 3.219,1.344 6.48,2.582 9.781,3.723 l -1.511,46.054 c -0.09,2.801 4.113,2.946 4.207,0.137 l 1.468,-44.824 c 3.231,1.015 6.496,1.929 9.789,2.734 l 3.922,57.703 c -12.09,-2.476 -23.801,-5.953 -35.066,-10.328 z m 39.344,11.16 -3.914,-57.551 c 3.769,0.817 7.574,1.493 11.402,2.024 l 6.953,45.484 c 0.422,2.774 4.586,2.133 4.16,-0.64 l -6.769,-44.309 c 2.961,0.328 5.937,0.566 8.925,0.719 l 14.887,57.808 c -12.172,-0.203 -24.074,-1.414 -35.644,-3.535 z m 40,3.563 -14.856,-57.68 c 3.817,0.082 7.645,0.02 11.488,-0.195 l 14.223,45.504 c 0.836,2.675 4.856,1.422 4.016,-1.258 l -13.922,-44.543 c 3.484,-0.293 6.98,-0.707 10.48,-1.254 l 24.242,56.461 c -12.093,1.969 -24.003,2.93 -35.671,2.965 z m 39.937,-3.696 -24.238,-56.461 c 3.152,-0.585 6.305,-1.273 9.453,-2.066 l 23.789,45.922 c 1.289,2.488 5.027,0.555 3.738,-1.938 L 402.25,479.047 c 4.113,-1.16 8.223,-2.508 12.316,-4.047 l 33.016,54.711 c -11.699,3.937 -23.281,6.906 -34.711,8.98 z M 336.523,411.84 c -0.039,-0.356 -0.16,-0.703 -0.375,-0.996 -0.23,-0.317 -0.562,-0.571 -1.007,-0.711 -0.11,-0.039 -0.227,-0.063 -0.352,-0.09 -3.535,-0.613 -7.121,-0.52 -10.586,0.168 -0.375,-0.348 -0.789,-0.68 -1.242,-0.996 0.598,-3.996 2.644,-9.121 7.375,-13.555 3.164,-0.105 6.312,-0.273 9.461,-0.527 l 9.519,38.637 c -10.347,3.046 -13.207,21.41 0.735,23.777 -0.11,3.008 1.164,5.691 3.215,7.785 -7.348,-0.453 -14.457,-1.426 -21.313,-2.867 l 1.961,-21.567 c 0.074,-0.242 0.09,-0.492 0.07,-0.738 l 0.207,-2.289 c 0.254,-2.793 -3.937,-3.176 -4.191,-0.379 l -0.152,1.653 -8.672,6.152 c -2.258,-1.914 -3.692,-4.766 -3.692,-7.957 0,-5.746 4.668,-10.422 10.426,-10.422 1.047,0 2.059,0.156 3.012,0.445 l -0.07,0.758 c -0.254,2.793 3.937,3.172 4.191,0.379 l 0.199,-2.152 c 0.035,-0.168 0.051,-0.332 0.043,-0.496 l 1.231,-13.504 c 0.019,-0.203 0.019,-0.36 0.007,-0.508 z m -15.652,38.832 1.238,-0.875 c 0.149,-0.078 0.286,-0.18 0.414,-0.297 l 6.821,-4.836 -1.531,16.867 c -5.489,-1.32 -10.805,-2.945 -15.946,-4.851 -10.922,-11.914 -9.679,-24.512 -2.879,-32.938 0.231,-0.187 0.418,-0.418 0.559,-0.672 5.391,-6.234 13.891,-9.988 22.601,-9.14 l -0.839,9.179 c -1.094,-0.257 -2.231,-0.398 -3.399,-0.398 -8.082,0 -14.633,6.555 -14.633,14.629 0,4.164 1.735,7.914 4.516,10.574 -1.039,1.727 1.074,4.18 3.078,2.758 z m -1.859,-38.957 c -4.516,1.73 -8.641,4.476 -11.938,7.937 -14.801,-3.789 -27.633,7.262 -32.511,16.309 -5.079,-3.926 -9.868,-8.168 -14.348,-12.68 l 9.008,-2.39 c 0.109,-0.024 0.218,-0.051 0.324,-0.086 l 2.285,-0.606 c 0.332,-0.023 0.668,-0.125 0.981,-0.34 0.32,-0.191 0.558,-0.441 0.722,-0.722 10.692,-12.102 35.942,-12.305 45.477,-7.422 z m -14.926,11.625 c -5.625,8.187 -6.957,19.129 0.07,30.223 -9.386,-4.125 -18.133,-9.196 -26.183,-15.047 3.789,-7.672 14.332,-16.95 26.113,-15.176 z m -33.566,-7.149 -0.45,0.118 c -1.457,-4.313 -1.281,-13.344 -0.148,-17.895 8.211,-2.445 17.773,-2.867 28.586,-2.789 9.004,0.059 17.578,0.273 25.988,0.164 -3.027,3.801 -4.687,7.824 -5.437,11.363 -12.543,-5.011 -37.34,-3.382 -48.539,9.039 z m 7.16,-65.132 c -2.707,1.343 -5.356,2.812 -7.91,4.441 -3.133,-2.254 -5.989,-4.461 -8.594,-6.617 -0.098,-0.098 -0.199,-0.188 -0.313,-0.266 -5.547,-4.617 -9.941,-9.023 -13.437,-13.211 -0.09,-0.14 -0.196,-0.265 -0.313,-0.383 -1.582,-1.914 -2.968,-3.781 -4.199,-5.609 -0.09,-0.219 -0.223,-0.426 -0.398,-0.601 -4.953,-7.547 -7.133,-14.325 -8.25,-20.372 -1.657,-8.945 -0.411,-20.476 -5.61,-28.355 8.153,0.484 10.422,2.769 15.391,7.769 -4.977,22.387 11.098,51.168 33.633,63.204 z m 2.5,-40.989 c -0.555,-0.82 -1.059,-1.675 -1.508,-2.57 -4.844,-9.617 0.367,-17.012 6.183,-17.012 13.137,0 12.36,18.844 -4.675,19.582 z m -23.801,40.258 c -7.324,5.719 -15.184,12.078 -19.266,20.449 -0.691,-4.738 -0.308,-9.195 0.676,-13.297 l 0.035,-0.152 c 1.707,-6.957 5.145,-12.875 8.02,-17.332 2.941,3.328 6.422,6.777 10.535,10.332 z m -15.461,-84.805 c 0.395,-5.882 0.941,-11.812 0.117,-17.617 6.738,0.469 9.285,2.43 12.949,6.149 -4.921,3.07 -9.156,6.511 -13.066,11.468 z m -2.086,78.118 -8.195,-4.141 4.277,-9.141 c 1.582,0.77 3.191,1.379 4.801,1.797 1,1.469 2.098,2.957 3.305,4.469 -1.504,2.32 -2.915,4.656 -4.188,7.016 z m -23.258,-37.356 c 0.102,-1.734 0.219,-3.437 0.364,-5.113 3.957,2.851 10.39,7.223 14.289,8.418 0.976,5.098 2.668,10.664 5.906,16.683 -0.332,-0.171 -0.664,-0.351 -0.996,-0.531 -0.094,-0.062 -0.192,-0.117 -0.293,-0.164 -9.063,-5.195 -17.387,-15.66 -19.27,-19.293 z m 0.805,26.692 c -0.801,-6.539 -1.164,-13.102 -1.07,-19.633 2.054,2.656 4.781,5.754 7.925,8.683 z m 2.406,14.054 c -0.555,-2.531 -1.047,-5.07 -1.472,-7.613 l 9.132,-14.582 c 1.532,1.242 3.129,2.414 4.77,3.461 -7.328,15.183 -8.793,11.996 5.73,19.121 -1.074,2.316 -1.992,4.668 -2.715,7.059 -3.902,-0.918 -10.179,-3.735 -15.445,-7.446 z m 23.375,54.293 c -10.066,-14.855 -17.488,-31.332 -21.949,-48.375 4.527,2.672 9.363,4.742 13.008,5.61 -1.266,6.441 -0.973,13.214 1.676,20.523 0.91,2.52 3.652,2.25 4.054,-0.394 1.656,-10.719 12.379,-19.102 20.731,-25.598 1.992,1.621 4.125,3.269 6.394,4.926 -12.125,8.867 -21.523,22.015 -23.914,43.308 z m 14.715,18.485 c -2.293,-2.461 -4.5,-4.996 -6.621,-7.598 4.211,-5.836 9.25,-9.664 15.082,-12.152 -0.762,5.175 -0.809,12.597 0.676,17.328 z m 118.285,13.925 c -1.902,-1.136 -4.285,-1.843 -7.168,-1.918 -0.82,-5.957 -1.558,-12.332 -0.691,-18.23 l 11.148,12.008 c -1.996,2.668 -3.039,5.469 -3.289,8.14 z m -12.437,-12.793 c -3.149,0.778 -6.239,1.762 -7.547,5.016 -0.582,1.449 4.066,0.727 4.637,0.715 1.136,-0.031 2.257,0.25 3.371,0.59 0.254,2.324 0.57,4.636 0.886,6.918 0.008,0.058 0.016,0.121 0.028,0.187 0.105,0.75 0.211,1.496 0.308,2.242 0.379,2.774 4.524,2.219 4.176,-0.539 12.41,1.032 9.973,18.77 -3.156,16.164 -2.75,-0.55 -3.571,3.582 -0.817,4.129 2.977,0.59 5.563,0.457 7.746,-0.195 -1.371,17.801 -28.664,6.934 -13.117,-6.418 2.133,-1.824 -0.609,-5.02 -2.738,-3.191 -2.727,2.339 -4.48,4.66 -5.465,6.879 -9.683,-1.485 -6.871,-13.403 -0.703,-15.551 l 0.082,0.347 c 0.672,2.723 4.762,1.719 4.09,-1.011 l -0.539,-2.176 c -0.016,-0.09 -0.039,-0.184 -0.067,-0.277 l -9.863,-40.036 c 1.723,-0.179 3.445,-0.394 5.172,-0.64 l 14.555,15.679 c -0.907,3.633 -1.145,7.391 -1.039,11.168 z m 20.785,-14.5 c -2.32,3.223 -3.156,7.965 -2.375,11.7 0.398,1.922 2.285,-1.145 2.656,-1.504 1.297,-1.27 3.07,-2.059 4.816,-2.793 3.543,5.078 7.145,10.101 10.829,15.054 4.152,5.59 8.386,11.059 12.734,16.379 -7.211,8.629 -19.438,3.723 -16.043,-9.91 0.676,-2.726 -3.41,-3.742 -4.086,-1.015 -0.758,3.035 -0.91,5.746 -0.594,8.105 -9.218,3.047 -15.8,-5.348 -10.074,-13.723 1.914,1.809 4.832,-0.976 2.961,-2.992 l -16.394,-17.66 c -0.137,-0.215 -0.313,-0.402 -0.516,-0.551 l -13.219,-14.246 c 5.758,-1.043 11.582,-2.5 17.567,-4.515 3.859,5.937 7.765,11.832 11.738,17.671 z M 364.918,288.5 c 23.395,9.309 30.797,28.254 29.676,43.34 -5.324,-7.824 -10.453,-15.488 -15.418,-22.758 -4.692,-6.863 -9.43,-13.75 -14.258,-20.582 z m 46.543,53.473 c 9.934,10.113 13.109,20.992 13.094,31.425 -5.446,-6.914 -10.703,-14.015 -15.785,-21.14 1.179,-3.465 2.07,-6.899 2.691,-10.285 z m 30.391,37.683 c 10.66,8.758 14.867,17.758 14.597,28.801 -5.707,-5.23 -11.222,-10.875 -16.57,-16.801 0.898,-4.082 1.57,-8.082 1.973,-12 z M 441.699,362.5 c 21.664,10.176 30.899,33.418 28.856,57.68 -3.434,-2.559 -6.801,-5.282 -10.11,-8.153 1.422,-14.918 -3.879,-26.554 -18.222,-37.433 0.175,-4.129 0.019,-8.164 -0.524,-12.094 z m -85.23,-90.617 c 0.082,0.015 0.168,0.023 0.254,0.027 24.711,2.403 46.351,22.059 50.789,48.207 0,0.219 0.031,0.438 0.109,0.649 0.828,5.234 0.965,10.718 0.309,16.367 -0.063,0.215 -0.094,0.437 -0.078,0.66 -0.43,3.336 -1.129,6.73 -2.137,10.16 -2.567,-3.652 -5.09,-7.293 -7.574,-10.918 3.609,-18.59 -4.938,-44.613 -37.446,-54.457 -2.625,-3.664 -5.285,-7.301 -7.976,-10.902 1.258,0.023 2.508,0.097 3.75,0.207 z m -90.895,-74.75 c 0.067,-0.098 0.129,-0.203 0.18,-0.313 0.434,-0.769 0.855,-1.547 1.262,-2.332 8.261,4.84 16.101,10.301 23.589,16.278 0.094,0.093 0.196,0.175 0.309,0.25 3.524,2.82 6.969,5.761 10.34,8.797 0.144,0.179 0.312,0.328 0.504,0.453 3.418,3.097 6.762,6.297 10.039,9.586 0.121,0.156 0.266,0.304 0.422,0.425 4.386,4.418 8.652,9 12.816,13.715 0.149,0.289 0.36,0.524 0.613,0.699 3.743,4.258 7.399,8.622 10.993,13.063 0.136,0.309 0.343,0.551 0.589,0.738 3.2,3.977 6.344,8.024 9.446,12.117 0.277,0.375 0.25,0.27 0.512,0.676 3.472,4.606 6.894,9.266 10.269,13.973 0.106,0.254 0.266,0.484 0.484,0.68 12.375,17.285 24.18,35.097 36.047,52.328 0.094,0.207 0.219,0.386 0.371,0.543 3.379,4.902 6.762,9.75 10.164,14.535 0.102,0.215 0.243,0.406 0.411,0.566 5.855,8.215 11.777,16.211 17.839,23.86 0.571,0.722 1.145,1.441 1.719,2.156 0.121,0.238 0.285,0.441 0.481,0.601 3.547,4.395 7.14,8.672 10.8,12.793 0.118,0.192 0.266,0.352 0.438,0.489 6.543,7.343 13.297,14.199 20.344,20.414 0.14,0.175 0.312,0.328 0.504,0.445 4.429,3.883 8.972,7.504 13.652,10.84 0.164,0.16 0.355,0.297 0.562,0.398 l 0.672,0.469 c 0.106,0.09 0.223,0.172 0.352,0.246 0.652,0.453 1.312,0.902 1.973,1.348 l -4.055,11.898 c -2.289,-1.765 -4.539,-3.57 -6.758,-5.398 -0.109,-0.117 -0.23,-0.219 -0.367,-0.309 -79.301,-65.859 -113.207,-172.754 -200.945,-231.512 1.214,-1.82 2.363,-3.648 3.429,-5.515 z m 75.715,-7.774 c 0.141,-0.023 0.281,-0.062 0.414,-0.109 1.735,-0.441 3.543,-0.672 5.41,-0.672 5.285,0 10.133,1.867 13.922,4.977 0.074,0.074 0.156,0.136 0.238,0.199 4.766,4.023 7.793,10.043 7.793,16.777 0,3.254 -0.707,6.344 -1.976,9.117 -0.098,0.157 -0.176,0.317 -0.235,0.493 -3.562,7.304 -11.062,12.339 -19.742,12.339 -1.097,0 -2.172,-0.082 -3.226,-0.234 l -0.449,-0.074 c -4.004,-0.672 -7.645,-2.43 -10.602,-4.965 l -0.305,-0.262 c -4.527,-4.019 -7.379,-9.882 -7.379,-16.414 0,-10.109 6.836,-18.621 16.137,-21.172 z m -56.832,-79.695 c 6.422,2.258 12.137,5.039 17.207,8.195 0.184,0.172 0.395,0.309 0.637,0.403 4.816,3.058 9.051,6.461 12.758,10.082 0.121,0.164 0.265,0.308 0.429,0.426 18.809,18.675 23.91,43.082 23.383,56.925 -4.328,1.43 -8.156,3.969 -11.152,7.27 2.261,-24.442 -5.555,-53.922 -41.102,-71.676 -0.558,-0.305 -0.699,-0.355 -0.984,-0.383 -0.219,-0.015 -0.676,-0.008 -1.262,0.203 -6.039,1.914 -12.223,5.082 -17.703,9.102 -0.691,0.473 -0.691,0.492 -1.301,0.984 -4.887,3.785 -9.133,8.25 -12.094,13.086 -0.351,0.563 -0.332,0.52 -0.546,0.93 -7.024,12.258 -5.696,26.758 14.125,38.633 -0.977,3.164 -2.258,6.172 -3.774,9.082 -40.457,-27.649 -24.426,-61.914 21.379,-83.262 z m 19.07,4.391 c -4.121,-2.535 -8.64,-4.832 -13.586,-6.825 24.223,-10.2066 55.391,-16.4839 88.77,-15.9331 -19.668,7.6445 -56.258,19.1681 -75.184,22.7581 z m 13.828,10.64 c -2.695,-2.582 -5.652,-5.047 -8.878,-7.355 23.558,-5.137 65.382,-18.8673 80.109,-25.6408 9,0.5196 18.137,1.5352 27.332,3.1055 -25.191,8.5703 -76.02,24.4373 -98.563,29.8903 z m 25.754,59.977 c 0.215,-14.274 -4.933,-37.723 -22.316,-56.488 26.211,-6.606 82.687,-24.43 103.437,-31.809 2.813,0.582 5.629,1.2227 8.446,1.9102 -3.602,16.5978 -3.262,40.9178 4.976,67.1918 -23.523,1.511 -50.308,8.734 -75.066,23.957 -4.332,-3.184 -9.684,-5.063 -15.473,-5.063 -1.359,0 -2.699,0.102 -4.004,0.301 z m -0.148,57.199 c 0.535,-1.887 1.133,-3.652 1.769,-5.289 0.786,0.066 1.579,0.106 2.383,0.106 4.153,0 8.082,-0.965 11.571,-2.688 2.644,11.277 -8.477,16.191 -15.723,7.871 z m 15.082,21.059 c 18.738,-4.532 25.145,-28.598 13.328,-42.586 1.227,-3.035 1.902,-6.344 1.902,-9.813 0,-7.074 -2.804,-13.492 -7.359,-18.195 36.691,-22.145 77.676,-26.363 104.774,-20.648 28.32,5.984 38.492,21.117 20.621,37.535 -3.102,2.851 5.351,10.629 11.57,11.359 0.699,4.059 -0.973,6.922 -4.254,8.598 -8.82,0.828 -22.922,-3.809 -32.246,-5.907 -0.547,-1.828 -3.25,-2.3 -3.965,-0.066 -0.969,3.035 1.551,7.688 2.211,9.098 1.281,2.734 4.754,0.933 3.543,-1.489 -0.43,-0.863 -0.898,-1.996 -1.25,-3.101 9.676,2.281 22.516,6.394 31.691,5.687 2.27,1.672 8.313,6.176 7.028,9.196 -0.36,0.836 -1.032,1.824 -2.117,3.265 -4.52,5.981 -2.602,10.172 1.57,14.645 -7.195,0.918 -16.328,-0.016 -21.172,-5.399 -2.793,-3.109 -7.785,5.164 -8.316,6.379 -2,4.575 -1.676,10.657 5.3,17.11 2.059,1.91 4.918,-1.18 2.86,-3.086 -5.567,-5.153 -6.992,-10.727 -1.742,-15.985 l 0.238,-0.234 c 7.523,6.191 18.055,6.855 27.265,4.699 l 0.079,-0.015 0.07,0.003 c 15.945,1.043 14.676,7.473 10.539,19.168 -1.633,4.61 -3.844,9.977 -6.184,16.118 -3.414,8.972 -9.75,27.226 -16.519,47.078 -18.164,7.133 -43.988,2.949 -63.836,-5.871 -4.891,-7.692 -12.078,-14.907 -22.102,-21.645 -4.871,-27.129 -27.086,-47.703 -52.859,-50.933 z m -4.156,0.66 0.527,3.93 c -1.601,-0.079 -3.219,-0.09 -4.844,-0.028 -2.918,-3.84 -5.875,-7.644 -8.886,-11.39 0.136,-3.27 0.523,-6.372 1.093,-9.27 8.922,7.422 25.911,2.473 20.645,-15.082 2.719,-1.965 5.039,-4.441 6.832,-7.277 9.309,13.144 1.348,34.41 -16.859,34.984 -2.805,0.09 -2.676,4.297 0.128,4.211 0.461,-0.016 0.915,-0.039 1.364,-0.078 z m 73.078,150.941 c 0,-2.168 -1.762,-3.926 -3.93,-3.926 -2.172,0 -3.93,1.758 -3.93,3.926 0,2.168 1.758,3.93 3.93,3.93 2.168,0 3.93,-1.762 3.93,-3.93 z m 11.32,13.012 c 0,-2.418 -1.965,-4.379 -4.383,-4.379 -2.418,0 -4.382,1.961 -4.382,4.379 0,2.422 1.964,4.387 4.382,4.387 2.418,0 4.383,-1.965 4.383,-4.387 z M 416,400.512 c 0,-1.914 -1.551,-3.465 -3.469,-3.465 -1.914,0 -3.468,1.551 -3.468,3.465 0,1.918 1.554,3.472 3.468,3.472 1.918,0 3.469,-1.554 3.469,-3.472 z m -120.25,37.847 c 0,-2.347 -1.898,-4.25 -4.242,-4.25 -2.34,0 -4.242,1.903 -4.242,4.25 0,2.344 1.902,4.239 4.242,4.239 2.344,0 4.242,-1.895 4.242,-4.239 z m 51.363,-235.398 c 4.176,0 7.567,3.387 7.567,7.57 0,4.18 -3.391,7.571 -7.567,7.571 -4.179,0 -7.57,-3.391 -7.57,-7.571 0,-4.183 3.391,-7.57 7.57,-7.57 z m 0,-4.211 c -6.504,0 -11.781,5.273 -11.781,11.781 0,6.508 5.277,11.778 11.781,11.778 6.5,0 11.778,-5.27 11.778,-11.778 0,-6.508 -5.278,-11.781 -11.778,-11.781 z m 162.41,65.242 c 0.047,-0.004 0.098,-0.008 0.149,-0.012 l -0.07,-0.003 z m -62.175,47.356 c -1.114,3.566 -1.555,7.535 -1.25,12.441 -6.403,-1.934 -12.446,-4.82 -17.618,-8.883 1.946,-0.648 4.727,-1.453 8.192,-2.152 3.066,-0.613 6.656,-1.145 10.676,-1.406 z m 3.062,13.593 c -0.535,-5.921 0.051,-10.117 1.449,-13.761 2.684,-0.024 5.524,0.078 8.485,0.363 -1.371,1.918 -2.332,4.504 -2.578,7.371 -0.239,2.785 0.218,5.418 1.164,7.508 -2.86,-0.336 -5.715,-0.832 -8.52,-1.481 z m 17.621,6.317 c 2.836,0.164 5.864,0.347 7.789,-0.188 1.391,-0.09 2.032,-1.129 2.004,-2.156 -0.039,-2.523 -3.293,-3.859 -5.82,-4.687 0.41,-1.204 0.691,-2.524 0.809,-3.911 0.503,-5.933 -1.993,-11.253 -5.778,-12.105 -0.125,-0.043 -0.265,-0.078 -0.41,-0.102 -4.656,-0.765 -10.078,-1.148 -15.668,-1.054 -0.402,-0.11 -0.836,-0.11 -1.234,0.031 -8.696,0.25 -17.703,1.664 -24.832,4.594 -0.133,-0.141 -0.2,-0.219 -0.2,-0.219 -1.796,-2.16 -5.027,0.535 -3.234,2.695 0.047,0.055 0.488,0.574 1.344,1.399 0.121,0.152 0.262,0.285 0.418,0.398 4.644,4.324 18.687,14.949 44.812,15.305"
         style="fill:#231f20;fill-opacity:1;fill-rule:nonzero;stroke:none"
         id="path16" />
      <path
         d="m 458.254,106.129 c -5.117,2.117 -14.047,4.762 -23.34,7.226 0.305,-5.144 0.945,-9.855 1.844,-14.0269 7.18,1.8989 14.359,4.1559 21.496,6.8009 z"
         style="fill:none;stroke:#231f20;stroke-width:0.292;stroke-linecap:butt;stroke-linejoin:miter;stroke-miterlimit:3.86371;stroke-dasharray:none;stroke-opacity:1"
         id="path18" />
      <path
         d="m 434.73,117.758 c 11.512,-3.024 24.02,-6.668 28.86,-9.574 4.098,1.636 8.183,3.402 12.242,5.308 -7.312,3.93 -24.586,9.391 -40.937,13.977 -0.18,-3.36 -0.231,-6.602 -0.165,-9.711 z"
         style="fill:none;stroke:#231f20;stroke-width:0.292;stroke-linecap:butt;stroke-linejoin:miter;stroke-miterlimit:3.86371;stroke-dasharray:none;stroke-opacity:1"
         id="path20" />
      <path
         d="m 464.328,103.945 c -0.18,-0.101 -0.367,-0.175 -0.566,-0.218 -12.883,-5.0512 -25.926,-8.8442 -38.91,-11.52 -0.196,-0.0781 -0.407,-0.1211 -0.633,-0.1328 -11.969,-2.4336 -23.887,-3.9258 -35.574,-4.582 -0.196,-0.0469 -0.403,-0.0625 -0.618,-0.0352 -39.191,-2.1211 -75.797,5.1016 -103.254,17.43 l -0.941,0.429 c -0.266,0.059 -0.508,0.176 -0.715,0.329 -46.719,21.652 -67.793,60.023 -22.101,90.964 -4.688,7.836 -10.879,15.102 -16.938,22.993 -1.941,2.523 -3.906,5.144 -5.855,7.89 -3.618,-9.601 -4.039,-15.781 2.054,-24.449 0.7,-0.996 0.45,-2.012 -0.195,-2.66 L 207.5,161.348 c -0.855,-1.028 -2.273,-1.055 -3.168,-0.075 -162.9726,178.602 22.75,449.532 247.09,371.575 1.371,-0.473 1.859,-1.832 1.113,-3.078 l -35.18,-58.293 c -0.359,-0.782 -1.152,-1.356 -2.285,-1.141 -10.925,2.043 -17.617,1.414 -22.324,-3.113 10.125,-1.758 20.578,-4.426 31.328,-8.082 9.598,10.601 19.785,20.429 30.785,29.218 0.145,0.141 0.309,0.266 0.489,0.368 0.57,0.355 1.156,0.394 1.668,0.226 0.519,-0.133 0.988,-0.484 1.277,-1.094 0.098,-0.179 0.168,-0.367 0.211,-0.57 l 20.23,-59.379 c 0.207,-0.469 0.254,-1 0.079,-1.5 -0.168,-0.496 -0.532,-0.887 -0.981,-1.133 -0.66,-0.433 -1.312,-0.867 -1.965,-1.312 4.156,-12.524 33.156,-99.723 42.094,-123.199 2.805,-7.352 8.973,-20.731 9.082,-28.524 0.109,-7.949 -5.398,-11.621 -16.723,-12.437 -5.629,-5.414 -6.48,-7.379 -3.441,-11.407 6.035,-7.988 2.699,-11.597 -4.024,-16.972 6.524,-5.27 5.047,-14.77 1.825,-14.922 -4.715,-0.219 -6.508,-1.691 -9.188,-5.449 20.676,-20.328 3.586,-37.672 -23.937,-43.481 -8.707,-1.84 -18.75,-2.687 -29.578,-2.308 -0.02,-0.11 -0.047,-0.223 -0.082,-0.34 -3.715,-11.649 -5.821,-22.887 -6.7,-33.168 18.457,-5.153 40.266,-11.953 46,-16.766 0.196,-0.133 0.371,-0.304 0.516,-0.496 0.437,-0.512 0.555,-1.09 0.461,-1.621 -0.063,-0.535 -0.344,-1.055 -0.902,-1.426 -0.176,-0.125 -0.372,-0.23 -0.579,-0.301 -5.414,-2.636 -10.875,-5.035 -16.363,-7.203 z"
         style="fill:none;stroke:#231f20;stroke-width:0.292;stroke-linecap:butt;stroke-linejoin:miter;stroke-miterlimit:3.86371;stroke-dasharray:none;stroke-opacity:1"
         id="path22" />
      <path
         d="m 271.305,183.746 c 0.105,-0.234 0.179,-0.484 0.199,-0.742 1.32,-5.016 1.914,-10.426 1.523,-16.434 12.817,8.782 9.645,23.461 5.864,30.399 -3.286,-2.199 -6.641,-4.297 -10.063,-6.297 0.973,-2.234 1.809,-4.539 2.477,-6.926 z"
         style="fill:none;stroke:#231f20;stroke-width:0.292;stroke-linecap:butt;stroke-linejoin:miter;stroke-miterlimit:3.86371;stroke-dasharray:none;stroke-opacity:1"
         id="path24" />
      <path
         d="m 267.953,179.57 c -9.301,-5.898 -13.644,-12.652 -14.387,-19.406 6.168,0.758 11.102,2.121 15.012,3.914 0.645,5.645 0.36,10.75 -0.625,15.492 z"
         style="fill:none;stroke:#231f20;stroke-width:0.292;stroke-linecap:butt;stroke-linejoin:miter;stroke-miterlimit:3.86371;stroke-dasharray:none;stroke-opacity:1"
         id="path26" />
      <path
         d="m 253.566,155.93 c 0.286,-2.711 1.114,-5.387 2.387,-7.977 29.391,0.508 51.422,29.785 35.551,58.176 -2.988,-2.34 -6.031,-4.606 -9.137,-6.777 5.906,-10.688 10.844,-38.852 -28.801,-43.422 z"
         style="fill:none;stroke:#231f20;stroke-width:0.292;stroke-linecap:butt;stroke-linejoin:miter;stroke-miterlimit:3.86371;stroke-dasharray:none;stroke-opacity:1"
         id="path28" />
      <path
         d="m 258.398,143.844 c 2.352,-3.36 5.442,-6.504 9.047,-9.293 42.907,12.16 51.836,48.109 34.91,80.629 -2.464,-2.188 -4.972,-4.317 -7.519,-6.391 17.977,-31.101 -5.492,-62.855 -36.438,-64.945 z"
         style="fill:none;stroke:#231f20;stroke-width:0.292;stroke-linecap:butt;stroke-linejoin:miter;stroke-miterlimit:3.86371;stroke-dasharray:none;stroke-opacity:1"
         id="path30" />
      <path
         d="m 271.848,131.484 c 4.07,-2.554 8.593,-4.679 13.324,-6.211 52.836,26.723 40.113,81.27 28.043,100.079 -2.504,-2.477 -5.047,-4.899 -7.629,-7.266 18.16,-33.875 9.785,-72.559 -33.738,-86.602 z"
         style="fill:none;stroke:#231f20;stroke-width:0.292;stroke-linecap:butt;stroke-linejoin:miter;stroke-miterlimit:3.86371;stroke-dasharray:none;stroke-opacity:1"
         id="path32" />
      <path
         d="m 436.949,346.398 c 18.453,7.161 41.141,10.559 58.836,5.012 -7.933,23.34 -16.164,47.957 -20.75,61.723 -0.172,-23.762 -10.965,-46.176 -34.242,-55.617 -0.867,-3.809 -2.133,-7.516 -3.844,-11.118 z"
         style="fill:none;stroke:#231f20;stroke-width:0.292;stroke-linecap:butt;stroke-linejoin:miter;stroke-miterlimit:3.86371;stroke-dasharray:none;stroke-opacity:1"
         id="path34" />
      <path
         d="m 430.215,342.887 c 0.086,0.234 0.219,0.453 0.406,0.652 3.051,5 5.074,10.215 6.238,15.66 0.008,0.235 0.055,0.465 0.141,0.684 0.98,4.914 1.27,10.008 0.988,15.308 -0.054,0.231 -0.074,0.473 -0.039,0.711 -0.242,3.832 -0.777,7.774 -1.554,11.817 -2.661,-3.051 -5.278,-6.164 -7.852,-9.336 1.168,-13.563 -2.008,-28.348 -16.34,-41.551 0.442,-4.215 0.469,-8.336 0.121,-12.344 7.961,5.801 13.805,11.918 17.891,18.399 z"
         style="fill:none;stroke:#231f20;stroke-width:0.292;stroke-linecap:butt;stroke-linejoin:miter;stroke-miterlimit:3.86371;stroke-dasharray:none;stroke-opacity:1"
         id="path36" />
      <path
         d="m 321.859,217.43 c 1.227,4.48 3.61,8.476 6.809,11.656 -1.48,3.098 -2.414,6.258 -3.055,9.273 -3.062,-3.394 -6.183,-6.718 -9.367,-9.961 1.91,-2.855 3.863,-6.585 5.613,-10.968 z"
         style="fill:none;stroke:#231f20;stroke-width:0.292;stroke-linecap:butt;stroke-linejoin:miter;stroke-miterlimit:3.86371;stroke-dasharray:none;stroke-opacity:1"
         id="path38" />
      <path
         d="m 332.012,231.898 c 2.539,1.793 5.406,3.145 8.496,3.954 -1.649,4.418 -3.031,9.66 -3.68,15.515 -2.519,-3.051 -5.078,-6.058 -7.668,-9.023 0.547,-3.442 1.36,-7.012 2.852,-10.446 z"
         style="fill:none;stroke:#231f20;stroke-width:0.292;stroke-linecap:butt;stroke-linejoin:miter;stroke-miterlimit:3.86371;stroke-dasharray:none;stroke-opacity:1"
         id="path40" />
      <path
         d="m 231.371,215.867 c 0,4.938 1.59,9.934 3.965,15.793 -10.457,15.582 -20.059,35.406 -23.215,65.145 -0.051,0.207 -0.078,0.422 -0.066,0.633 -0.289,2.82 -0.52,5.734 -0.688,8.742 -0.054,0.222 -0.074,0.457 -0.039,0.703 -0.055,1 -0.098,2.008 -0.137,3.031 -0.367,9.621 0.247,19.344 1.786,28.992 -0.016,0.282 0.031,0.551 0.128,0.797 0.473,2.875 1.032,5.746 1.668,8.602 -0.003,0.289 0.055,0.582 0.192,0.859 6.234,27.211 19.805,53.305 39.512,74.227 0.136,0.203 0.308,0.382 0.507,0.531 5.817,6.113 12.161,11.781 19.004,16.894 l 0.129,0.098 c 10.711,7.988 22.645,14.629 35.68,19.52 0.137,0.074 0.281,0.129 0.422,0.16 15.969,5.945 33.582,9.269 52.629,9.269 1.113,0.114 2.23,0.106 3.32,-0.035 7.027,-0.144 14.246,-0.734 21.648,-1.82 3.286,4.226 7.348,6.449 12.286,7.265 -0.43,0.122 -0.86,0.235 -1.289,0.352 -0.083,0.016 -0.161,0.035 -0.235,0.059 -9.176,2.418 -18.371,3.894 -27.512,4.507 l -0.144,0.004 c -48.531,3.18 -95.367,-18.164 -127.715,-53.726 l -0.094,-0.102 c -6.535,-7.195 -12.476,-14.976 -17.722,-23.246 -0.055,-0.109 -0.118,-0.207 -0.192,-0.305 -4.844,-7.675 -9.086,-15.777 -12.64,-24.238 -0.02,-0.055 -0.043,-0.101 -0.067,-0.156 -3.488,-8.313 -6.312,-16.977 -8.394,-25.918 -8.035,-34.531 -5.016,-73.168 13.617,-112.274 l 0.031,-0.054 c 3.859,-8.098 8.387,-16.207 13.625,-24.309 z"
         style="fill:none;stroke:#231f20;stroke-width:0.292;stroke-linecap:butt;stroke-linejoin:miter;stroke-miterlimit:3.86371;stroke-dasharray:none;stroke-opacity:1"
         id="path42" />
      <path
         d="m 239.258,233.367 c 0.183,-0.183 0.332,-0.394 0.433,-0.633 1.52,-2.222 3.055,-4.355 4.586,-6.421 8.266,6.378 16.055,13.156 23.446,20.273 -3.645,1.875 -6.961,3.555 -10.016,5.269 -5.687,-5.746 -9.578,-8.347 -19.309,-8.23 -1.589,0.016 -2.457,1.219 -1.984,2.734 1.746,5.575 0.106,18.895 -0.004,25.809 -0.793,1.348 -1.574,2.785 -2.351,4.316 -2.594,-0.539 -5.758,-0.722 -10.071,-0.722 -2.402,0 -3.195,2.035 -1.418,3.656 6.516,5.937 5.539,14.445 6.91,25.391 -3.726,-1.965 -10.468,-6.661 -13.07,-8.52 3.215,-28.758 12.621,-47.828 22.848,-62.922 z"
         style="fill:none;stroke:#231f20;stroke-width:0.292;stroke-linecap:butt;stroke-linejoin:miter;stroke-miterlimit:3.86371;stroke-dasharray:none;stroke-opacity:1"
         id="path44" />
      <path
         d="m 259.742,206.102 c 86.102,57.617 120.477,162.527 197.508,228.628 l -11.387,2.293 c -2.242,0.497 -2.242,0.446 -2.004,2.981 l 1.864,16.004 c -71.16,-72.68 -110.879,-191.93 -191.524,-242.547 1.918,-2.465 3.781,-4.902 5.543,-7.359 z"
         style="fill:none;stroke:#231f20;stroke-width:0.292;stroke-linecap:butt;stroke-linejoin:miter;stroke-miterlimit:3.86371;stroke-dasharray:none;stroke-opacity:1"
         id="path46" />
      <path
         d="m 460.082,469.609 c -3.254,-2.847 -6.437,-5.789 -9.562,-8.828 l -2.348,-19.851 13.207,-2.727 c 2.422,1.996 4.891,3.953 7.402,5.875 l -1.754,5.16 c -3.781,-1.289 -7.886,0.727 -9.175,4.512 -1.289,3.781 0.726,7.887 4.511,9.176 z"
         style="fill:none;stroke:#231f20;stroke-width:0.292;stroke-linecap:butt;stroke-linejoin:miter;stroke-miterlimit:3.86371;stroke-dasharray:none;stroke-opacity:1"
         id="path48" />
      <path
         d="m 272.512,245.449 c -8.094,-7.957 -16.629,-15.496 -25.699,-22.496 l 0.605,-0.789 c 1.395,-1.82 2.793,-3.605 4.176,-5.367 42.383,26.449 73.355,72.484 104.133,121.207 26.675,42.226 54.691,89.449 91.058,125.027 0.149,0.215 0.328,0.387 0.531,0.52 3.68,3.578 7.442,7.039 11.301,10.359 l -3.222,9.465 c -14.055,-11.508 -26.829,-24.836 -38.68,-39.16 -0.117,-0.207 -0.27,-0.391 -0.453,-0.547 -22.805,-27.672 -42.211,-59.02 -60.821,-88.18 -9.796,-15.351 -19.738,-30.793 -30.207,-45.847 -0.101,-0.231 -0.242,-0.426 -0.41,-0.594 -4.238,-6.078 -8.562,-12.094 -13.004,-18.012 -0.109,-0.215 -0.246,-0.394 -0.41,-0.543 -3.207,-4.265 -6.476,-8.484 -9.812,-12.64 -0.102,-0.192 -0.246,-0.368 -0.426,-0.528 -4.879,-6.054 -9.906,-11.976 -15.113,-17.73 -0.129,-0.203 -0.289,-0.379 -0.481,-0.528 -4.137,-4.554 -8.387,-8.996 -12.765,-13.32 z"
         style="fill:none;stroke:#231f20;stroke-width:0.292;stroke-linecap:butt;stroke-linejoin:miter;stroke-miterlimit:3.86371;stroke-dasharray:none;stroke-opacity:1"
         id="path50" />
      <path
         d="m 270.898,249.684 c 3.149,3.125 6.235,6.312 9.25,9.55 -19.628,3.207 -30.437,12.461 -34.757,24.063 -2.703,-2.59 -4.84,-4.336 -7.282,-5.488 0.621,-1.204 1.246,-2.336 1.879,-3.411 0.246,-0.226 0.442,-0.531 0.543,-0.906 7.926,-13.004 16.758,-16.793 30.367,-23.808 z"
         style="fill:none;stroke:#231f20;stroke-width:0.292;stroke-linecap:butt;stroke-linejoin:miter;stroke-miterlimit:3.86371;stroke-dasharray:none;stroke-opacity:1"
         id="path52" />
      <path
         d="m 283.594,262.988 c 3.226,3.571 6.386,7.207 9.476,10.895 -36.015,-10.235 -58.781,46.566 2.762,69.883 -4.434,1.5 -8.894,3.129 -13.25,5.023 -39.996,-17.91 -53.344,-78.766 1.012,-85.801 z"
         style="fill:none;stroke:#231f20;stroke-width:0.292;stroke-linecap:butt;stroke-linejoin:miter;stroke-miterlimit:3.86371;stroke-dasharray:none;stroke-opacity:1"
         id="path54" />
      <path
         d="m 298.633,280.664 c 3.156,3.93 6.246,7.922 9.281,11.953 1.449,10.625 -1.293,22.465 -14.551,28.399 -3.769,-1.938 -7.179,-4.262 -9.953,-7.039 19.524,-3.137 19.121,-27.704 1.445,-27.704 -14.648,0 -13.886,18.149 -7.539,27 0.09,0.161 0.2,0.313 0.329,0.442 l 0.054,0.07 c 3.137,4.047 7.813,7.934 14.348,11.254 0.207,0.164 0.449,0.293 0.719,0.359 4.761,2.344 10.476,4.399 17.257,6.008 0.243,0.11 0.508,0.176 0.786,0.18 4.074,0.937 8.523,1.715 13.375,2.305 -3.774,1.703 -8.016,3.234 -12.598,4.75 -2.981,0.988 -6.055,1.961 -9.184,2.964 -66.367,-21.441 -39.711,-79.96 -3.769,-60.941 z"
         style="fill:none;stroke:#231f20;stroke-width:0.292;stroke-linecap:butt;stroke-linejoin:miter;stroke-miterlimit:3.86371;stroke-dasharray:none;stroke-opacity:1"
         id="path56" />
      <path
         d="m 312.445,298.727 c 2.938,4.011 5.821,8.066 8.668,12.156 -0.82,4.121 -5.312,11.609 -10.722,16.226 -4.09,-0.996 -8.231,-2.261 -12.149,-3.859 10.262,-5.898 13.922,-15.379 14.203,-24.523 z"
         style="fill:none;stroke:#231f20;stroke-width:0.292;stroke-linecap:butt;stroke-linejoin:miter;stroke-miterlimit:3.86371;stroke-dasharray:none;stroke-opacity:1"
         id="path58" />
      <path
         d="m 324.121,315.238 c 3.055,4.453 6.067,8.942 9.047,13.453 -0.738,0.571 -1.516,1.118 -2.336,1.645 -4.285,-0.356 -9.707,-1 -15.461,-2.133 3.774,-3.851 7.024,-8.769 8.75,-12.965 z"
         style="fill:none;stroke:#231f20;stroke-width:0.292;stroke-linecap:butt;stroke-linejoin:miter;stroke-miterlimit:3.86371;stroke-dasharray:none;stroke-opacity:1"
         id="path60" />
      <path
         d="m 335.488,332.219 c 3.078,4.699 6.133,9.422 9.168,14.156 -11.605,2.695 -32.683,1.234 -45.816,0.949 4.57,-1.574 9.281,-3.097 14.07,-4.683 7.055,-2.336 13.774,-4.832 19.266,-8.18 0.234,-0.09 0.441,-0.219 0.609,-0.379 0.942,-0.59 1.844,-1.211 2.703,-1.863 z"
         style="fill:none;stroke:#231f20;stroke-width:0.292;stroke-linecap:butt;stroke-linejoin:miter;stroke-miterlimit:3.86371;stroke-dasharray:none;stroke-opacity:1"
         id="path62" />
      <path
         d="m 347.043,350.109 c 2.168,3.391 4.328,6.789 6.492,10.188 -12.879,4.023 -33.711,3.07 -46.383,2.883 -15.476,-0.235 -31.582,-0.36 -44.172,2.804 6.536,-6.023 14.586,-10.367 23.528,-14.066 6.328,-1.055 22.133,-0.098 27.539,0.051 11.824,0.316 24.789,0.394 32.996,-1.86 z"
         style="fill:none;stroke:#231f20;stroke-width:0.292;stroke-linecap:butt;stroke-linejoin:miter;stroke-miterlimit:3.86371;stroke-dasharray:none;stroke-opacity:1"
         id="path64" />
      <path
         d="m 355.863,363.965 c 1.832,2.887 3.668,5.765 5.504,8.644 -16.515,6.332 -43.047,4.149 -60.039,4.106 -19.726,-0.055 -39.609,1.273 -52.426,12.09 1.957,-6.485 4.774,-11.891 8.286,-16.485 18.902,-8.105 55.292,-3.918 77.57,-5.011 7.871,-0.387 15.168,-1.297 21.105,-3.344 z"
         style="fill:none;stroke:#231f20;stroke-width:0.292;stroke-linecap:butt;stroke-linejoin:miter;stroke-miterlimit:3.86371;stroke-dasharray:none;stroke-opacity:1"
         id="path66" />
      <path
         d="m 363.672,376.219 c 1.906,2.976 3.812,5.945 5.726,8.902 -6.578,2.152 -12.988,3.613 -19.339,4.59 -0.219,0 -0.434,0.035 -0.641,0.098 -16.668,2.492 -32.961,1.73 -50.879,1.605 -11.125,-0.082 -21.523,0.328 -30.656,3.227 -0.246,0.027 -0.488,0.105 -0.715,0.226 -7.527,2.512 -14.168,6.774 -19.617,13.926 -0.547,-0.711 -1.086,-1.426 -1.621,-2.148 0.199,-3.485 0.566,-6.747 1.093,-9.809 10.676,-13.965 31.25,-15.973 54.297,-15.914 18.2,0.047 44.989,2.363 62.352,-4.703 z"
         style="fill:none;stroke:#231f20;stroke-width:0.292;stroke-linecap:butt;stroke-linejoin:miter;stroke-miterlimit:3.86371;stroke-dasharray:none;stroke-opacity:1"
         id="path68" />
      <path
         d="m 414.879,448.559 c 2.019,2.421 4.07,4.808 6.141,7.164 -11.094,3.675 -21.856,6.269 -32.258,7.875 -0.176,0.004 -0.344,0.031 -0.516,0.078 -4.848,0.738 -9.621,1.254 -14.312,1.574 1.82,-2.57 2.894,-6.285 2.671,-11.383 2.481,-2.109 3.907,-5.148 4.223,-8.297 3.059,1.887 7.141,2.473 11.75,0.957 3.805,8.473 15.168,9.782 22.301,2.032 z"
         style="fill:none;stroke:#231f20;stroke-width:0.292;stroke-linecap:butt;stroke-linejoin:miter;stroke-miterlimit:3.86371;stroke-dasharray:none;stroke-opacity:1"
         id="path70" />
      <path
         d="m 181.582,197.633 38.527,28.793 c -1.836,3.297 -3.562,6.59 -5.179,9.887 l -32.203,-19.637 c -2.395,-1.461 -4.586,2.133 -2.192,3.594 l 32.57,19.863 c -1.296,2.789 -2.519,5.574 -3.664,8.359 l -44.238,-20.578 c 4.559,-10.234 10.004,-20.351 16.379,-30.281 z"
         style="fill:none;stroke:#231f20;stroke-width:0.292;stroke-linecap:butt;stroke-linejoin:miter;stroke-miterlimit:3.86371;stroke-dasharray:none;stroke-opacity:1"
         id="path72" />
      <path
         d="m 222.207,222.742 -38.316,-28.64 c 6.414,-9.602 13.707,-19.024 21.929,-28.2 l 30.059,36.012 c -1.988,2.715 -3.895,5.434 -5.723,8.156 l -28.672,-28.359 c -1.996,-1.977 -4.957,1.019 -2.961,2.992 l 29.27,28.949 c -1.961,3.028 -3.82,6.059 -5.586,9.09 z"
         style="fill:none;stroke:#231f20;stroke-width:0.292;stroke-linecap:butt;stroke-linejoin:miter;stroke-miterlimit:3.86371;stroke-dasharray:none;stroke-opacity:1"
         id="path74" />
      <path
         d="m 163.527,231.777 44.348,20.629 c -1.117,2.903 -2.16,5.797 -3.117,8.688 l -36.227,-10.641 c -2.691,-0.785 -3.879,3.254 -1.183,4.043 l 36.129,10.613 c -1.207,3.922 -2.266,7.84 -3.184,11.743 l -48.086,-10.266 c 2.711,-11.68 6.465,-23.309 11.32,-34.809 z"
         style="fill:none;stroke:#231f20;stroke-width:0.292;stroke-linecap:butt;stroke-linejoin:miter;stroke-miterlimit:3.86371;stroke-dasharray:none;stroke-opacity:1"
         id="path76" />
      <path
         d="m 151.293,270.695 48.082,10.266 c -0.719,3.418 -1.328,6.832 -1.836,10.219 l -38.289,-3.586 c -2.793,-0.266 -3.187,3.926 -0.395,4.187 l 38.118,3.574 c -0.477,3.829 -0.817,7.633 -1.024,11.407 l -49.121,0.988 c 0.391,-12.312 1.852,-24.703 4.465,-37.055 z"
         style="fill:none;stroke:#231f20;stroke-width:0.292;stroke-linecap:butt;stroke-linejoin:miter;stroke-miterlimit:3.86371;stroke-dasharray:none;stroke-opacity:1"
         id="path78" />
      <path
         d="m 146.738,311.961 49.028,-0.984 c -0.102,3.351 -0.102,6.675 -0.004,9.976 l -37.942,4.188 c -2.789,0.308 -2.328,4.492 0.461,4.187 l 37.66,-4.164 c 0.235,4.215 0.625,8.391 1.172,12.516 l -47.836,9.851 c -1.812,-11.707 -2.679,-23.593 -2.539,-35.57 z"
         style="fill:none;stroke:#231f20;stroke-width:0.292;stroke-linecap:butt;stroke-linejoin:miter;stroke-miterlimit:3.86371;stroke-dasharray:none;stroke-opacity:1"
         id="path80" />
      <path
         d="m 149.961,351.684 47.758,-9.832 c 0.515,3.257 1.129,6.472 1.832,9.664 l -36.586,11.523 c -2.676,0.836 -1.41,4.856 1.265,4.012 l 36.282,-11.426 c 0.785,3.168 1.66,6.305 2.625,9.406 L 159.125,387 c -3.992,-11.484 -7.074,-23.289 -9.164,-35.316 z"
         style="fill:none;stroke:#231f20;stroke-width:0.292;stroke-linecap:butt;stroke-linejoin:miter;stroke-miterlimit:3.86371;stroke-dasharray:none;stroke-opacity:1"
         id="path82" />
      <path
         d="m 160.555,390.996 43.898,-21.918 c 1.07,3.156 2.235,6.274 3.485,9.352 l -33.551,20.562 c -2.391,1.469 -0.188,5.055 2.199,3.586 l 33.008,-20.23 c 1.465,3.355 3.035,6.652 4.707,9.882 l -39.485,30.098 c -5.515,-10.07 -10.289,-20.551 -14.261,-31.332 z"
         style="fill:none;stroke:#231f20;stroke-width:0.292;stroke-linecap:butt;stroke-linejoin:miter;stroke-miterlimit:3.86371;stroke-dasharray:none;stroke-opacity:1"
         id="path84" />
      <path
         d="M 176.891,426.047 216.305,396 c 1.433,2.613 2.933,5.188 4.496,7.715 l -28.934,27.75 c -2.023,1.941 0.891,4.98 2.918,3.035 l 28.32,-27.156 c 2.122,3.246 4.352,6.422 6.68,9.515 l -33.23,38.375 c -7.266,-9.234 -13.848,-19 -19.664,-29.187 z"
         style="fill:none;stroke:#231f20;stroke-width:0.292;stroke-linecap:butt;stroke-linejoin:miter;stroke-miterlimit:3.86371;stroke-dasharray:none;stroke-opacity:1"
         id="path86" />
      <path
         d="m 199.234,458.574 33.172,-38.32 c 2.082,2.629 4.239,5.191 6.461,7.684 l -24.594,33.812 c -1.652,2.266 1.754,4.742 3.403,2.473 l 24.086,-33.11 c 2.449,2.621 4.98,5.168 7.582,7.629 l -26.176,45.094 c -8.598,-7.824 -16.598,-16.277 -23.934,-25.262 z"
         style="fill:none;stroke:#231f20;stroke-width:0.292;stroke-linecap:butt;stroke-linejoin:miter;stroke-miterlimit:3.86371;stroke-dasharray:none;stroke-opacity:1"
         id="path88" />
      <path
         d="m 226.371,486.703 26.145,-45.039 c 2.265,2.043 4.582,4.02 6.949,5.938 l -17.227,39.664 c -1.121,2.578 2.742,4.254 3.86,1.679 l 16.785,-38.648 c 3.004,2.316 6.082,4.527 9.226,6.633 l -17.214,51.152 c -10.067,-6.394 -19.602,-13.551 -28.524,-21.379 z"
         style="fill:none;stroke:#231f20;stroke-width:0.292;stroke-linecap:butt;stroke-linejoin:miter;stroke-miterlimit:3.86371;stroke-dasharray:none;stroke-opacity:1"
         id="path90" />
      <path
         d="m 258.57,510.359 17.184,-51.058 c 2.711,1.719 5.469,3.359 8.269,4.918 l -10.171,42.636 c -0.653,2.731 3.441,3.708 4.093,0.977 l 9.91,-41.539 c 3,1.566 6.043,3.047 9.129,4.434 l -7.425,55.328 c -10.778,-4.434 -21.129,-9.696 -30.989,-15.696 z"
         style="fill:none;stroke:#231f20;stroke-width:0.292;stroke-linecap:butt;stroke-linejoin:miter;stroke-miterlimit:3.86371;stroke-dasharray:none;stroke-opacity:1"
         id="path92" />
      <path
         d="M 293.59,527.664 301,472.465 c 3.219,1.344 6.48,2.582 9.781,3.723 l -1.511,46.054 c -0.09,2.801 4.113,2.946 4.207,0.137 l 1.468,-44.824 c 3.231,1.015 6.496,1.929 9.789,2.734 l 3.922,57.703 c -12.09,-2.476 -23.801,-5.953 -35.066,-10.328 z"
         style="fill:none;stroke:#231f20;stroke-width:0.292;stroke-linecap:butt;stroke-linejoin:miter;stroke-miterlimit:3.86371;stroke-dasharray:none;stroke-opacity:1"
         id="path94" />
      <path
         d="m 332.934,538.824 -3.914,-57.551 c 3.769,0.817 7.574,1.493 11.402,2.024 l 6.953,45.484 c 0.422,2.774 4.586,2.133 4.16,-0.64 l -6.769,-44.309 c 2.961,0.328 5.937,0.566 8.925,0.719 l 14.887,57.808 c -12.172,-0.203 -24.074,-1.414 -35.644,-3.535 z"
         style="fill:none;stroke:#231f20;stroke-width:0.292;stroke-linecap:butt;stroke-linejoin:miter;stroke-miterlimit:3.86371;stroke-dasharray:none;stroke-opacity:1"
         id="path96" />
      <path
         d="m 372.934,542.387 -14.856,-57.68 c 3.817,0.082 7.645,0.02 11.488,-0.195 l 14.223,45.504 c 0.836,2.675 4.856,1.422 4.016,-1.258 l -13.922,-44.543 c 3.484,-0.293 6.98,-0.707 10.48,-1.254 l 24.242,56.461 c -12.093,1.969 -24.003,2.93 -35.671,2.965 z"
         style="fill:none;stroke:#231f20;stroke-width:0.292;stroke-linecap:butt;stroke-linejoin:miter;stroke-miterlimit:3.86371;stroke-dasharray:none;stroke-opacity:1"
         id="path98" />
      <path
         d="M 412.871,538.691 388.633,482.23 c 3.152,-0.585 6.305,-1.273 9.453,-2.066 l 23.789,45.922 c 1.289,2.488 5.027,0.555 3.738,-1.938 L 402.25,479.047 c 4.113,-1.16 8.223,-2.508 12.316,-4.047 l 33.016,54.711 c -11.699,3.937 -23.281,6.906 -34.711,8.98 z"
         style="fill:none;stroke:#231f20;stroke-width:0.292;stroke-linecap:butt;stroke-linejoin:miter;stroke-miterlimit:3.86371;stroke-dasharray:none;stroke-opacity:1"
         id="path100" />
      <path
         d="m 336.523,411.84 c -0.039,-0.356 -0.16,-0.703 -0.375,-0.996 -0.23,-0.317 -0.562,-0.571 -1.007,-0.711 -0.11,-0.039 -0.227,-0.063 -0.352,-0.09 -3.535,-0.613 -7.121,-0.52 -10.586,0.168 -0.375,-0.348 -0.789,-0.68 -1.242,-0.996 0.598,-3.996 2.644,-9.121 7.375,-13.555 3.164,-0.105 6.312,-0.273 9.461,-0.527 l 9.519,38.637 c -10.347,3.046 -13.207,21.41 0.735,23.777 -0.11,3.008 1.164,5.691 3.215,7.785 -7.348,-0.453 -14.457,-1.426 -21.313,-2.867 l 1.961,-21.567 c 0.074,-0.242 0.09,-0.492 0.07,-0.738 l 0.207,-2.289 c 0.254,-2.793 -3.937,-3.176 -4.191,-0.379 l -0.152,1.653 -8.672,6.152 c -2.258,-1.914 -3.692,-4.766 -3.692,-7.957 0,-5.746 4.668,-10.422 10.426,-10.422 1.047,0 2.059,0.156 3.012,0.445 l -0.07,0.758 c -0.254,2.793 3.937,3.172 4.191,0.379 l 0.199,-2.152 c 0.035,-0.168 0.051,-0.332 0.043,-0.496 l 1.231,-13.504 c 0.019,-0.203 0.019,-0.36 0.007,-0.508 z"
         style="fill:none;stroke:#231f20;stroke-width:0.292;stroke-linecap:butt;stroke-linejoin:miter;stroke-miterlimit:3.86371;stroke-dasharray:none;stroke-opacity:1"
         id="path102" />
      <path
         d="m 320.871,450.672 1.238,-0.875 c 0.149,-0.078 0.286,-0.18 0.414,-0.297 l 6.821,-4.836 -1.531,16.867 c -5.489,-1.32 -10.805,-2.945 -15.946,-4.851 -10.922,-11.914 -9.679,-24.512 -2.879,-32.938 0.231,-0.187 0.418,-0.418 0.559,-0.672 5.391,-6.234 13.891,-9.988 22.601,-9.14 l -0.839,9.179 c -1.094,-0.257 -2.231,-0.398 -3.399,-0.398 -8.082,0 -14.633,6.555 -14.633,14.629 0,4.164 1.735,7.914 4.516,10.574 -1.039,1.727 1.074,4.18 3.078,2.758 z"
         style="fill:none;stroke:#231f20;stroke-width:0.292;stroke-linecap:butt;stroke-linejoin:miter;stroke-miterlimit:3.86371;stroke-dasharray:none;stroke-opacity:1"
         id="path104" />
      <path
         d="m 319.012,411.715 c -4.516,1.73 -8.641,4.476 -11.938,7.937 -14.801,-3.789 -27.633,7.262 -32.511,16.309 -5.079,-3.926 -9.868,-8.168 -14.348,-12.68 l 9.008,-2.39 c 0.109,-0.024 0.218,-0.051 0.324,-0.086 l 2.285,-0.606 c 0.332,-0.023 0.668,-0.125 0.981,-0.34 0.32,-0.191 0.558,-0.441 0.722,-0.722 10.692,-12.102 35.942,-12.305 45.477,-7.422 z"
         style="fill:none;stroke:#231f20;stroke-width:0.292;stroke-linecap:butt;stroke-linejoin:miter;stroke-miterlimit:3.86371;stroke-dasharray:none;stroke-opacity:1"
         id="path106" />
      <path
         d="m 304.086,423.34 c -5.625,8.187 -6.957,19.129 0.07,30.223 -9.386,-4.125 -18.133,-9.196 -26.183,-15.047 3.789,-7.672 14.332,-16.95 26.113,-15.176 z"
         style="fill:none;stroke:#231f20;stroke-width:0.292;stroke-linecap:butt;stroke-linejoin:miter;stroke-miterlimit:3.86371;stroke-dasharray:none;stroke-opacity:1"
         id="path108" />
      <path
         d="m 270.52,416.191 -0.45,0.118 c -1.457,-4.313 -1.281,-13.344 -0.148,-17.895 8.211,-2.445 17.773,-2.867 28.586,-2.789 9.004,0.059 17.578,0.273 25.988,0.164 -3.027,3.801 -4.687,7.824 -5.437,11.363 -12.543,-5.011 -37.34,-3.382 -48.539,9.039 z"
         style="fill:none;stroke:#231f20;stroke-width:0.292;stroke-linecap:butt;stroke-linejoin:miter;stroke-miterlimit:3.86371;stroke-dasharray:none;stroke-opacity:1"
         id="path110" />
      <path
         d="m 277.68,351.059 c -2.707,1.343 -5.356,2.812 -7.91,4.441 -3.133,-2.254 -5.989,-4.461 -8.594,-6.617 -0.098,-0.098 -0.199,-0.188 -0.313,-0.266 -5.547,-4.617 -9.941,-9.023 -13.437,-13.211 -0.09,-0.14 -0.196,-0.265 -0.313,-0.383 -1.582,-1.914 -2.968,-3.781 -4.199,-5.609 -0.09,-0.219 -0.223,-0.426 -0.398,-0.601 -4.953,-7.547 -7.133,-14.325 -8.25,-20.372 -1.657,-8.945 -0.411,-20.476 -5.61,-28.355 8.153,0.484 10.422,2.769 15.391,7.769 -4.977,22.387 11.098,51.168 33.633,63.204 z"
         style="fill:none;stroke:#231f20;stroke-width:0.292;stroke-linecap:butt;stroke-linejoin:miter;stroke-miterlimit:3.86371;stroke-dasharray:none;stroke-opacity:1"
         id="path112" />
      <path
         d="m 280.18,310.07 c -0.555,-0.82 -1.059,-1.675 -1.508,-2.57 -4.844,-9.617 0.367,-17.012 6.183,-17.012 13.137,0 12.36,18.844 -4.675,19.582 z"
         style="fill:none;stroke:#231f20;stroke-width:0.292;stroke-linecap:butt;stroke-linejoin:miter;stroke-miterlimit:3.86371;stroke-dasharray:none;stroke-opacity:1"
         id="path114" />
      <path
         d="m 256.379,350.328 c -7.324,5.719 -15.184,12.078 -19.266,20.449 -0.691,-4.738 -0.308,-9.195 0.676,-13.297 l 0.035,-0.152 c 1.707,-6.957 5.145,-12.875 8.02,-17.332 2.941,3.328 6.422,6.777 10.535,10.332 z"
         style="fill:none;stroke:#231f20;stroke-width:0.292;stroke-linecap:butt;stroke-linejoin:miter;stroke-miterlimit:3.86371;stroke-dasharray:none;stroke-opacity:1"
         id="path116" />
      <path
         d="m 240.918,265.523 c 0.395,-5.882 0.941,-11.812 0.117,-17.617 6.738,0.469 9.285,2.43 12.949,6.149 -4.921,3.07 -9.156,6.511 -13.066,11.468 z"
         style="fill:none;stroke:#231f20;stroke-width:0.292;stroke-linecap:butt;stroke-linejoin:miter;stroke-miterlimit:3.86371;stroke-dasharray:none;stroke-opacity:1"
         id="path118" />
      <path
         d="m 238.832,343.641 -8.195,-4.141 4.277,-9.141 c 1.582,0.77 3.191,1.379 4.801,1.797 1,1.469 2.098,2.957 3.305,4.469 -1.504,2.32 -2.915,4.656 -4.188,7.016 z"
         style="fill:none;stroke:#231f20;stroke-width:0.292;stroke-linecap:butt;stroke-linejoin:miter;stroke-miterlimit:3.86371;stroke-dasharray:none;stroke-opacity:1"
         id="path120" />
      <path
         d="m 215.574,306.285 c 0.102,-1.734 0.219,-3.437 0.364,-5.113 3.957,2.851 10.39,7.223 14.289,8.418 0.976,5.098 2.668,10.664 5.906,16.683 -0.332,-0.171 -0.664,-0.351 -0.996,-0.531 -0.094,-0.062 -0.192,-0.117 -0.293,-0.164 -9.063,-5.195 -17.387,-15.66 -19.27,-19.293 z"
         style="fill:none;stroke:#231f20;stroke-width:0.292;stroke-linecap:butt;stroke-linejoin:miter;stroke-miterlimit:3.86371;stroke-dasharray:none;stroke-opacity:1"
         id="path122" />
      <path
         d="m 216.379,332.977 c -0.801,-6.539 -1.164,-13.102 -1.07,-19.633 2.054,2.656 4.781,5.754 7.925,8.683 z"
         style="fill:none;stroke:#231f20;stroke-width:0.292;stroke-linecap:butt;stroke-linejoin:miter;stroke-miterlimit:3.86371;stroke-dasharray:none;stroke-opacity:1"
         id="path124" />
      <path
         d="m 218.785,347.031 c -0.555,-2.531 -1.047,-5.07 -1.472,-7.613 l 9.132,-14.582 c 1.532,1.242 3.129,2.414 4.77,3.461 -7.328,15.183 -8.793,11.996 5.73,19.121 -1.074,2.316 -1.992,4.668 -2.715,7.059 -3.902,-0.918 -10.179,-3.735 -15.445,-7.446 z"
         style="fill:none;stroke:#231f20;stroke-width:0.292;stroke-linecap:butt;stroke-linejoin:miter;stroke-miterlimit:3.86371;stroke-dasharray:none;stroke-opacity:1"
         id="path126" />
      <path
         d="m 242.16,401.324 c -10.066,-14.855 -17.488,-31.332 -21.949,-48.375 4.527,2.672 9.363,4.742 13.008,5.61 -1.266,6.441 -0.973,13.214 1.676,20.523 0.91,2.52 3.652,2.25 4.054,-0.394 1.656,-10.719 12.379,-19.102 20.731,-25.598 1.992,1.621 4.125,3.269 6.394,4.926 -12.125,8.867 -21.523,22.015 -23.914,43.308 z"
         style="fill:none;stroke:#231f20;stroke-width:0.292;stroke-linecap:butt;stroke-linejoin:miter;stroke-miterlimit:3.86371;stroke-dasharray:none;stroke-opacity:1"
         id="path128" />
      <path
         d="m 256.875,419.809 c -2.293,-2.461 -4.5,-4.996 -6.621,-7.598 4.211,-5.836 9.25,-9.664 15.082,-12.152 -0.762,5.175 -0.809,12.597 0.676,17.328 z"
         style="fill:none;stroke:#231f20;stroke-width:0.292;stroke-linecap:butt;stroke-linejoin:miter;stroke-miterlimit:3.86371;stroke-dasharray:none;stroke-opacity:1"
         id="path130" />
      <path
         d="m 375.16,433.734 c -1.902,-1.136 -4.285,-1.843 -7.168,-1.918 -0.82,-5.957 -1.558,-12.332 -0.691,-18.23 l 11.148,12.008 c -1.996,2.668 -3.039,5.469 -3.289,8.14 z"
         style="fill:none;stroke:#231f20;stroke-width:0.292;stroke-linecap:butt;stroke-linejoin:miter;stroke-miterlimit:3.86371;stroke-dasharray:none;stroke-opacity:1"
         id="path132" />
      <path
         d="m 362.723,420.941 c -3.149,0.778 -6.239,1.762 -7.547,5.016 -0.582,1.449 4.066,0.727 4.637,0.715 1.136,-0.031 2.257,0.25 3.371,0.59 0.254,2.324 0.57,4.636 0.886,6.918 0.008,0.058 0.016,0.121 0.028,0.187 0.105,0.75 0.211,1.496 0.308,2.242 0.379,2.774 4.524,2.219 4.176,-0.539 12.41,1.032 9.973,18.77 -3.156,16.164 -2.75,-0.55 -3.571,3.582 -0.817,4.129 2.977,0.59 5.563,0.457 7.746,-0.195 -1.371,17.801 -28.664,6.934 -13.117,-6.418 2.133,-1.824 -0.609,-5.02 -2.738,-3.191 -2.727,2.339 -4.48,4.66 -5.465,6.879 -9.683,-1.485 -6.871,-13.403 -0.703,-15.551 l 0.082,0.347 c 0.672,2.723 4.762,1.719 4.09,-1.011 l -0.539,-2.176 c -0.016,-0.09 -0.039,-0.184 -0.067,-0.277 l -9.863,-40.036 c 1.723,-0.179 3.445,-0.394 5.172,-0.64 l 14.555,15.679 c -0.907,3.633 -1.145,7.391 -1.039,11.168 z"
         style="fill:none;stroke:#231f20;stroke-width:0.292;stroke-linecap:butt;stroke-linejoin:miter;stroke-miterlimit:3.86371;stroke-dasharray:none;stroke-opacity:1"
         id="path134" />
      <path
         d="m 383.508,406.441 c -2.32,3.223 -3.156,7.965 -2.375,11.7 0.398,1.922 2.285,-1.145 2.656,-1.504 1.297,-1.27 3.07,-2.059 4.816,-2.793 3.543,5.078 7.145,10.101 10.829,15.054 4.152,5.59 8.386,11.059 12.734,16.379 -7.211,8.629 -19.438,3.723 -16.043,-9.91 0.676,-2.726 -3.41,-3.742 -4.086,-1.015 -0.758,3.035 -0.91,5.746 -0.594,8.105 -9.218,3.047 -15.8,-5.348 -10.074,-13.723 1.914,1.809 4.832,-0.976 2.961,-2.992 l -16.394,-17.66 c -0.137,-0.215 -0.313,-0.402 -0.516,-0.551 l -13.219,-14.246 c 5.758,-1.043 11.582,-2.5 17.567,-4.515 3.859,5.937 7.765,11.832 11.738,17.671 z"
         style="fill:none;stroke:#231f20;stroke-width:0.292;stroke-linecap:butt;stroke-linejoin:miter;stroke-miterlimit:3.86371;stroke-dasharray:none;stroke-opacity:1"
         id="path136" />
      <path
         d="m 364.918,288.5 c 23.395,9.309 30.797,28.254 29.676,43.34 -5.324,-7.824 -10.453,-15.488 -15.418,-22.758 -4.692,-6.863 -9.43,-13.75 -14.258,-20.582 z"
         style="fill:none;stroke:#231f20;stroke-width:0.292;stroke-linecap:butt;stroke-linejoin:miter;stroke-miterlimit:3.86371;stroke-dasharray:none;stroke-opacity:1"
         id="path138" />
      <path
         d="m 411.461,341.973 c 9.934,10.113 13.109,20.992 13.094,31.425 -5.446,-6.914 -10.703,-14.015 -15.785,-21.14 1.179,-3.465 2.07,-6.899 2.691,-10.285 z"
         style="fill:none;stroke:#231f20;stroke-width:0.292;stroke-linecap:butt;stroke-linejoin:miter;stroke-miterlimit:3.86371;stroke-dasharray:none;stroke-opacity:1"
         id="path140" />
      <path
         d="m 441.852,379.656 c 10.66,8.758 14.867,17.758 14.597,28.801 -5.707,-5.23 -11.222,-10.875 -16.57,-16.801 0.898,-4.082 1.57,-8.082 1.973,-12 z"
         style="fill:none;stroke:#231f20;stroke-width:0.292;stroke-linecap:butt;stroke-linejoin:miter;stroke-miterlimit:3.86371;stroke-dasharray:none;stroke-opacity:1"
         id="path142" />
      <path
         d="m 441.699,362.5 c 21.664,10.176 30.899,33.418 28.856,57.68 -3.434,-2.559 -6.801,-5.282 -10.11,-8.153 1.422,-14.918 -3.879,-26.554 -18.222,-37.433 0.175,-4.129 0.019,-8.164 -0.524,-12.094 z"
         style="fill:none;stroke:#231f20;stroke-width:0.292;stroke-linecap:butt;stroke-linejoin:miter;stroke-miterlimit:3.86371;stroke-dasharray:none;stroke-opacity:1"
         id="path144" />
      <path
         d="m 356.469,271.883 c 0.082,0.015 0.168,0.023 0.254,0.027 24.711,2.403 46.351,22.059 50.789,48.207 0,0.219 0.031,0.438 0.109,0.649 0.828,5.234 0.965,10.718 0.309,16.367 -0.063,0.215 -0.094,0.437 -0.078,0.66 -0.43,3.336 -1.129,6.73 -2.137,10.16 -2.567,-3.652 -5.09,-7.293 -7.574,-10.918 3.609,-18.59 -4.938,-44.613 -37.446,-54.457 -2.625,-3.664 -5.285,-7.301 -7.976,-10.902 1.258,0.023 2.508,0.097 3.75,0.207 z"
         style="fill:none;stroke:#231f20;stroke-width:0.292;stroke-linecap:butt;stroke-linejoin:miter;stroke-miterlimit:3.86371;stroke-dasharray:none;stroke-opacity:1"
         id="path146" />
      <path
         d="m 265.574,197.133 c 0.067,-0.098 0.129,-0.203 0.18,-0.313 0.434,-0.769 0.855,-1.547 1.262,-2.332 8.261,4.84 16.101,10.301 23.589,16.278 0.094,0.093 0.196,0.175 0.309,0.25 3.524,2.82 6.969,5.761 10.34,8.797 0.144,0.179 0.312,0.328 0.504,0.453 3.418,3.097 6.762,6.297 10.039,9.586 0.121,0.156 0.266,0.304 0.422,0.425 4.386,4.418 8.652,9 12.816,13.715 0.149,0.289 0.36,0.524 0.613,0.699 3.743,4.258 7.399,8.622 10.993,13.063 0.136,0.309 0.343,0.551 0.589,0.738 3.2,3.977 6.344,8.024 9.446,12.117 0.277,0.375 0.25,0.27 0.512,0.676 3.472,4.606 6.894,9.266 10.269,13.973 0.106,0.254 0.266,0.484 0.484,0.68 12.375,17.285 24.18,35.097 36.047,52.328 0.094,0.207 0.219,0.386 0.371,0.543 3.379,4.902 6.762,9.75 10.164,14.535 0.102,0.215 0.243,0.406 0.411,0.566 5.855,8.215 11.777,16.211 17.839,23.86 0.571,0.722 1.145,1.441 1.719,2.156 0.121,0.238 0.285,0.441 0.481,0.601 3.547,4.395 7.14,8.672 10.8,12.793 0.118,0.192 0.266,0.352 0.438,0.489 6.543,7.343 13.297,14.199 20.344,20.414 0.14,0.175 0.312,0.328 0.504,0.445 4.429,3.883 8.972,7.504 13.652,10.84 0.164,0.16 0.355,0.297 0.562,0.398 l 0.672,0.469 c 0.106,0.09 0.223,0.172 0.352,0.246 0.652,0.453 1.312,0.902 1.973,1.348 l -4.055,11.898 c -2.289,-1.765 -4.539,-3.57 -6.758,-5.398 -0.109,-0.117 -0.23,-0.219 -0.367,-0.309 -79.301,-65.859 -113.207,-172.754 -200.945,-231.512 1.214,-1.82 2.363,-3.648 3.429,-5.515 z"
         style="fill:none;stroke:#231f20;stroke-width:0.292;stroke-linecap:butt;stroke-linejoin:miter;stroke-miterlimit:3.86371;stroke-dasharray:none;stroke-opacity:1"
         id="path148" />
      <path
         d="m 341.289,189.359 c 0.141,-0.023 0.281,-0.062 0.414,-0.109 1.735,-0.441 3.543,-0.672 5.41,-0.672 5.285,0 10.133,1.867 13.922,4.977 0.074,0.074 0.156,0.136 0.238,0.199 4.766,4.023 7.793,10.043 7.793,16.777 0,3.254 -0.707,6.344 -1.976,9.117 -0.098,0.157 -0.176,0.317 -0.235,0.493 -3.562,7.304 -11.062,12.339 -19.742,12.339 -1.097,0 -2.172,-0.082 -3.226,-0.234 l -0.449,-0.074 c -4.004,-0.672 -7.645,-2.43 -10.602,-4.965 l -0.305,-0.262 c -4.527,-4.019 -7.379,-9.882 -7.379,-16.414 0,-10.109 6.836,-18.621 16.137,-21.172 z"
         style="fill:none;stroke:#231f20;stroke-width:0.292;stroke-linecap:butt;stroke-linejoin:miter;stroke-miterlimit:3.86371;stroke-dasharray:none;stroke-opacity:1"
         id="path150" />
      <path
         d="m 284.457,109.664 c 6.422,2.258 12.137,5.039 17.207,8.195 0.184,0.172 0.395,0.309 0.637,0.403 4.816,3.058 9.051,6.461 12.758,10.082 0.121,0.164 0.265,0.308 0.429,0.426 18.809,18.675 23.91,43.082 23.383,56.925 -4.328,1.43 -8.156,3.969 -11.152,7.27 2.261,-24.442 -5.555,-53.922 -41.102,-71.676 -0.558,-0.305 -0.699,-0.355 -0.984,-0.383 -0.219,-0.015 -0.676,-0.008 -1.262,0.203 -6.039,1.914 -12.223,5.082 -17.703,9.102 -0.691,0.473 -0.691,0.492 -1.301,0.984 -4.887,3.785 -9.133,8.25 -12.094,13.086 -0.351,0.563 -0.332,0.52 -0.546,0.93 -7.024,12.258 -5.696,26.758 14.125,38.633 -0.977,3.164 -2.258,6.172 -3.774,9.082 -40.457,-27.649 -24.426,-61.914 21.379,-83.262 z"
         style="fill:none;stroke:#231f20;stroke-width:0.292;stroke-linecap:butt;stroke-linejoin:miter;stroke-miterlimit:3.86371;stroke-dasharray:none;stroke-opacity:1"
         id="path152" />
      <path
         d="m 303.527,114.055 c -4.121,-2.535 -8.64,-4.832 -13.586,-6.825 24.223,-10.2066 55.391,-16.4839 88.77,-15.9331 -19.668,7.6445 -56.258,19.1681 -75.184,22.7581 z"
         style="fill:none;stroke:#231f20;stroke-width:0.292;stroke-linecap:butt;stroke-linejoin:miter;stroke-miterlimit:3.86371;stroke-dasharray:none;stroke-opacity:1"
         id="path154" />
      <path
         d="m 317.355,124.695 c -2.695,-2.582 -5.652,-5.047 -8.878,-7.355 23.558,-5.137 65.382,-18.8673 80.109,-25.6408 9,0.5196 18.137,1.5352 27.332,3.1055 -25.191,8.5703 -76.02,24.4373 -98.563,29.8903 z"
         style="fill:none;stroke:#231f20;stroke-width:0.292;stroke-linecap:butt;stroke-linejoin:miter;stroke-miterlimit:3.86371;stroke-dasharray:none;stroke-opacity:1"
         id="path156" />
      <path
         d="m 343.109,184.672 c 0.215,-14.274 -4.933,-37.723 -22.316,-56.488 26.211,-6.606 82.687,-24.43 103.437,-31.809 2.813,0.582 5.629,1.2227 8.446,1.9102 -3.602,16.5978 -3.262,40.9178 4.976,67.1918 -23.523,1.511 -50.308,8.734 -75.066,23.957 -4.332,-3.184 -9.684,-5.063 -15.473,-5.063 -1.359,0 -2.699,0.102 -4.004,0.301 z"
         style="fill:none;stroke:#231f20;stroke-width:0.292;stroke-linecap:butt;stroke-linejoin:miter;stroke-miterlimit:3.86371;stroke-dasharray:none;stroke-opacity:1"
         id="path158" />
      <path
         d="m 342.961,241.871 c 0.535,-1.887 1.133,-3.652 1.769,-5.289 0.786,0.066 1.579,0.106 2.383,0.106 4.153,0 8.082,-0.965 11.571,-2.688 2.644,11.277 -8.477,16.191 -15.723,7.871 z"
         style="fill:none;stroke:#231f20;stroke-width:0.292;stroke-linecap:butt;stroke-linejoin:miter;stroke-miterlimit:3.86371;stroke-dasharray:none;stroke-opacity:1"
         id="path160" />
      <path
         d="m 358.043,262.93 c 18.738,-4.532 25.145,-28.598 13.328,-42.586 1.227,-3.035 1.902,-6.344 1.902,-9.813 0,-7.074 -2.804,-13.492 -7.359,-18.195 36.691,-22.145 77.676,-26.363 104.774,-20.648 28.32,5.984 38.492,21.117 20.621,37.535 -3.102,2.851 5.351,10.629 11.57,11.359 0.699,4.059 -0.973,6.922 -4.254,8.598 -8.82,0.828 -22.922,-3.809 -32.246,-5.907 -0.547,-1.828 -3.25,-2.3 -3.965,-0.066 -0.969,3.035 1.551,7.688 2.211,9.098 1.281,2.734 4.754,0.933 3.543,-1.489 -0.43,-0.863 -0.898,-1.996 -1.25,-3.101 9.676,2.281 22.516,6.394 31.691,5.687 2.27,1.672 8.313,6.176 7.028,9.196 -0.36,0.836 -1.032,1.824 -2.117,3.265 -4.52,5.981 -2.602,10.172 1.57,14.645 -7.195,0.918 -16.328,-0.016 -21.172,-5.399 -2.793,-3.109 -7.785,5.164 -8.316,6.379 -2,4.575 -1.676,10.657 5.3,17.11 2.059,1.91 4.918,-1.18 2.86,-3.086 -5.567,-5.153 -6.992,-10.727 -1.742,-15.985 l 0.238,-0.234 c 7.523,6.191 18.055,6.855 27.265,4.699 l 0.079,-0.015 0.07,0.003 c 15.945,1.043 14.676,7.473 10.539,19.168 -1.633,4.61 -3.844,9.977 -6.184,16.118 -3.414,8.972 -9.75,27.226 -16.519,47.078 -18.164,7.133 -43.988,2.949 -63.836,-5.871 -4.891,-7.692 -12.078,-14.907 -22.102,-21.645 -4.871,-27.129 -27.086,-47.703 -52.859,-50.933 z"
         style="fill:none;stroke:#231f20;stroke-width:0.292;stroke-linecap:butt;stroke-linejoin:miter;stroke-miterlimit:3.86371;stroke-dasharray:none;stroke-opacity:1"
         id="path162" />
      <path
         d="m 353.887,263.59 0.527,3.93 c -1.601,-0.079 -3.219,-0.09 -4.844,-0.028 -2.918,-3.84 -5.875,-7.644 -8.886,-11.39 0.136,-3.27 0.523,-6.372 1.093,-9.27 8.922,7.422 25.911,2.473 20.645,-15.082 2.719,-1.965 5.039,-4.441 6.832,-7.277 9.309,13.144 1.348,34.41 -16.859,34.984 -2.805,0.09 -2.676,4.297 0.128,4.211 0.461,-0.016 0.915,-0.039 1.364,-0.078 z"
         style="fill:none;stroke:#231f20;stroke-width:0.292;stroke-linecap:butt;stroke-linejoin:miter;stroke-miterlimit:3.86371;stroke-dasharray:none;stroke-opacity:1"
         id="path164" />
      <path
         d="m 426.965,414.531 c 0,-2.168 -1.762,-3.926 -3.93,-3.926 -2.172,0 -3.93,1.758 -3.93,3.926 0,2.168 1.758,3.93 3.93,3.93 2.168,0 3.93,-1.762 3.93,-3.93 z"
         style="fill:none;stroke:#231f20;stroke-width:0.292;stroke-linecap:butt;stroke-linejoin:miter;stroke-miterlimit:3.86371;stroke-dasharray:none;stroke-opacity:1"
         id="path166" />
      <path
         d="m 438.285,427.543 c 0,-2.418 -1.965,-4.379 -4.383,-4.379 -2.418,0 -4.382,1.961 -4.382,4.379 0,2.422 1.964,4.387 4.382,4.387 2.418,0 4.383,-1.965 4.383,-4.387 z"
         style="fill:none;stroke:#231f20;stroke-width:0.292;stroke-linecap:butt;stroke-linejoin:miter;stroke-miterlimit:3.86371;stroke-dasharray:none;stroke-opacity:1"
         id="path168" />
      <path
         d="m 416,400.512 c 0,-1.914 -1.551,-3.465 -3.469,-3.465 -1.914,0 -3.468,1.551 -3.468,3.465 0,1.918 1.554,3.472 3.468,3.472 1.918,0 3.469,-1.554 3.469,-3.472 z"
         style="fill:none;stroke:#231f20;stroke-width:0.292;stroke-linecap:butt;stroke-linejoin:miter;stroke-miterlimit:3.86371;stroke-dasharray:none;stroke-opacity:1"
         id="path170" />
      <path
         d="m 295.75,438.359 c 0,-2.347 -1.898,-4.25 -4.242,-4.25 -2.34,0 -4.242,1.903 -4.242,4.25 0,2.344 1.902,4.239 4.242,4.239 2.344,0 4.242,-1.895 4.242,-4.239 z"
         style="fill:none;stroke:#231f20;stroke-width:0.292;stroke-linecap:butt;stroke-linejoin:miter;stroke-miterlimit:3.86371;stroke-dasharray:none;stroke-opacity:1"
         id="path172" />
      <path
         d="m 347.113,202.961 c 4.176,0 7.567,3.387 7.567,7.57 0,4.18 -3.391,7.571 -7.567,7.571 -4.179,0 -7.57,-3.391 -7.57,-7.571 0,-4.183 3.391,-7.57 7.57,-7.57 z"
         style="fill:none;stroke:#231f20;stroke-width:0.292;stroke-linecap:butt;stroke-linejoin:miter;stroke-miterlimit:3.86371;stroke-dasharray:none;stroke-opacity:1"
         id="path174" />
      <path
         d="m 347.113,198.75 c -6.504,0 -11.781,5.273 -11.781,11.781 0,6.508 5.277,11.778 11.781,11.778 6.5,0 11.778,-5.27 11.778,-11.778 0,-6.508 -5.278,-11.781 -11.778,-11.781 z"
         style="fill:none;stroke:#231f20;stroke-width:0.292;stroke-linecap:butt;stroke-linejoin:miter;stroke-miterlimit:3.86371;stroke-dasharray:none;stroke-opacity:1"
         id="path176" />
      <path
         d="m 509.523,263.992 c 0.047,-0.004 0.098,-0.008 0.149,-0.012 l -0.07,-0.003 z"
         style="fill:none;stroke:#231f20;stroke-width:0.292;stroke-linecap:butt;stroke-linejoin:miter;stroke-miterlimit:3.86371;stroke-dasharray:none;stroke-opacity:1"
         id="path178" />
      <path
         d="m 447.348,311.348 c -1.114,3.566 -1.555,7.535 -1.25,12.441 -6.403,-1.934 -12.446,-4.82 -17.618,-8.883 1.946,-0.648 4.727,-1.453 8.192,-2.152 3.066,-0.613 6.656,-1.145 10.676,-1.406 z"
         style="fill:none;stroke:#231f20;stroke-width:0.292;stroke-linecap:butt;stroke-linejoin:miter;stroke-miterlimit:3.86371;stroke-dasharray:none;stroke-opacity:1"
         id="path180" />
      <path
         d="m 450.41,324.941 c -0.535,-5.921 0.051,-10.117 1.449,-13.761 2.684,-0.024 5.524,0.078 8.485,0.363 -1.371,1.918 -2.332,4.504 -2.578,7.371 -0.239,2.785 0.218,5.418 1.164,7.508 -2.86,-0.336 -5.715,-0.832 -8.52,-1.481 z"
         style="fill:none;stroke:#231f20;stroke-width:0.292;stroke-linecap:butt;stroke-linejoin:miter;stroke-miterlimit:3.86371;stroke-dasharray:none;stroke-opacity:1"
         id="path182" />
      <path
         d="m 468.031,331.258 c 2.836,0.164 5.864,0.347 7.789,-0.188 1.391,-0.09 2.032,-1.129 2.004,-2.156 -0.039,-2.523 -3.293,-3.859 -5.82,-4.687 0.41,-1.204 0.691,-2.524 0.809,-3.911 0.503,-5.933 -1.993,-11.253 -5.778,-12.105 -0.125,-0.043 -0.265,-0.078 -0.41,-0.102 -4.656,-0.765 -10.078,-1.148 -15.668,-1.054 -0.402,-0.11 -0.836,-0.11 -1.234,0.031 -8.696,0.25 -17.703,1.664 -24.832,4.594 -0.133,-0.141 -0.2,-0.219 -0.2,-0.219 -1.796,-2.16 -5.027,0.535 -3.234,2.695 0.047,0.055 0.488,0.574 1.344,1.399 0.121,0.152 0.262,0.285 0.418,0.398 4.644,4.324 18.687,14.949 44.812,15.305 z"
         style="fill:none;stroke:#231f20;stroke-width:0.292;stroke-linecap:butt;stroke-linejoin:miter;stroke-miterlimit:3.86371;stroke-dasharray:none;stroke-opacity:1"
         id="path184" />
      <path
         d="m 618.508,490.668 v -7.461 h 23.738 v -73.316 h 8.91 v 73.316 h 23.867 v 7.461 z m 74.633,0 v -80.777 h 43.918 v 7.468 H 702.18 V 448 h 31.582 v 7.465 H 702.18 v 27.742 h 34.879 v 7.461 z m 103.437,-5.078 c 7.75,0 14.574,-1.559 20.93,-5.777 l 3.426,6.476 c -7.582,3.965 -15.09,6.149 -24.356,6.149 -23.879,0 -42.687,-17.208 -42.687,-41.856 0,-26.289 18.785,-41.852 42.687,-41.852 8.176,0 16.844,3.149 23.992,7.176 l -3.207,5.758 c -6.308,-3.504 -13.629,-6.098 -20.785,-6.098 -19.621,0 -33.469,15.622 -33.469,35.016 0,19.395 13.848,35.008 33.469,35.008 z m 44.817,5.078 v -80.777 h 9.046 v 38.703 h 44.024 v -38.703 h 8.984 v 80.777 h -8.984 v -34.746 h -44.024 v 34.746 z m 100.246,1.855 -9.387,-2.39 v -80.242 h 8.629 l -0.035,69.347 47.492,-71.121 9.527,2.629 v 79.922 h -8.402 l -0.156,-69.297 z m 88.949,-1.855 v -80.777 h 8.98 v 80.777 z m 55.03,-75.844 c -6.28,0 -12.73,2.739 -17.2,5.699 l -3.59,-5.867 c 6.51,-3.914 12.97,-5.961 21.38,-5.961 17.56,0 25.73,11.012 25.73,22.766 0,12.309 -8.74,17.5 -17.98,21.937 l -6.78,3.25 c -5.89,2.969 -12.15,6.832 -12.15,14.442 0,10.476 8.63,15.203 16.04,15.203 7.55,0 12.46,-2.652 17.12,-5.676 l 3.11,5.93 c -6.24,3.617 -13.1,5.879 -20.7,5.879 -14.25,0 -24.07,-8.629 -24.07,-20.742 0,-16.899 12.36,-19.957 24.26,-25.692 6.54,-3.16 11.93,-7.109 11.93,-15.363 0,-9.684 -7.11,-15.805 -17.1,-15.805 z m 88.7,70.766 c 7.76,0 14.58,-1.559 20.94,-5.777 l 3.42,6.476 c -7.58,3.965 -15.09,6.149 -24.36,6.149 -23.87,0 -42.68,-17.208 -42.68,-41.856 0,-26.289 18.79,-41.852 42.68,-41.852 8.18,0 16.85,3.149 24,7.176 l -3.21,5.758 c -6.31,-3.504 -13.63,-6.098 -20.79,-6.098 -19.61,0 -33.46,15.622 -33.46,35.016 0,19.395 13.85,35.008 33.46,35.008 z m 47.5,5.078 v -80.777 h 9.04 v 38.703 h 44.03 v -38.703 h 8.98 v 80.777 h -8.98 v -34.746 h -44.03 v 34.746 z m 90.84,0 v -80.777 h 43.99 v 7.468 h -34.88 V 448 h 31.59 v 7.461 h -31.59 v 27.746 h 34.88 v 7.461 z M 690.578,304.059 v 52.976 h -9.039 l -0.004,-51.668 c 0,-18.121 -8.738,-23.84 -22.683,-23.84 -15.282,0 -21.739,8.34 -21.739,23.84 v 51.668 h -9.297 l 0.235,-53.754 c 0,-18.422 10.844,-28.433 30.801,-28.433 15.171,0 31.726,4.859 31.726,29.211 z m 34.953,54.765 -9.386,-2.386 v -80.243 h 8.632 l -0.039,69.344 47.492,-71.121 9.528,2.629 v 79.926 h -8.399 l -0.16,-69.297 z m 84.571,-1.789 v -80.84 h 9.043 v 80.84 z m 35.3,1.242 -8.773,-2.773 30.844,-79.309 h 8.925 l 31.036,79.192 -8.575,2.875 -26.687,-72.5 z m 79.477,-1.242 v -80.84 h 43.914 v 7.461 h -34.871 v 30.641 h 31.516 v 7.469 h -31.516 v 27.808 h 34.871 v 7.461 z m 84.941,-39.422 h -10.765 v 32.422 h 13.015 c 13.93,0 18.09,-6.808 18.09,-16.113 0,-12.863 -10.05,-16.309 -20.34,-16.309 z m 4.54,39.356 -24.415,0.062 v -80.898 h 9.11 v 34.808 h 7.405 c 5.97,0 9.05,-2.195 12.56,-6.492 l 3.48,-4.445 18.97,-25.844 7.89,4.723 -15.99,21.16 c -3.14,3.902 -7.44,11.457 -12.6,12.687 l 0.08,1.668 c 11.14,1.5 17.65,7.961 17.65,20.993 0,13.16 -8.92,21.578 -24.14,21.578 z m 67.28,-76.391 c -6.28,0 -12.72,2.735 -17.19,5.692 l -3.6,-5.864 c 6.52,-3.914 12.97,-5.957 21.38,-5.957 17.57,0 25.73,11.004 25.73,22.762 0,12.305 -8.73,17.5 -17.97,21.937 l -6.79,3.254 c -5.89,2.965 -12.15,6.825 -12.15,14.434 0,10.477 8.64,15.211 16.05,15.211 7.54,0 12.45,-2.656 17.12,-5.68 l 3.11,5.93 c -6.24,3.617 -13.11,5.875 -20.71,5.875 -14.24,0 -24.07,-8.625 -24.07,-20.742 0,-16.891 12.37,-19.95 24.26,-25.692 6.54,-3.152 11.93,-7.105 11.93,-15.363 0,-9.68 -7.1,-15.797 -17.1,-15.797 z m 50.57,76.457 v -80.84 h 9.04 v 80.84 z m 26.7,0 v -7.461 h 23.75 v -73.379 h 8.91 v 73.379 h 23.87 v 7.461 z m 97.46,-8.144 14.87,-39.981 h -30.2 z m 36.73,-71.723 -31.97,79.867 h -9.47 l -32.93,-79.863 8.93,-3.125 10.86,28.32 h 35.16 l 10.55,-28.375 z m -13.4,84.996 h -8.13 v -10.562 h 8.13 z m -38.27,-10.562 v 10.562 h -8.06 v -10.562 z m 59.96,5.433 v -7.461 h 23.73 v -73.379 h 8.92 v 73.379 h 23.86 v 7.461 z M 648.934,149.563 h -11.817 v 66.781 l 13.656,-0.055 c 22.415,0 37.118,-11.469 37.118,-32.816 0,-21.207 -14.977,-33.91 -38.957,-33.91 z m 3.754,73.851 -24.684,-0.078 v -80.773 h 21.937 c 27.985,0 46.508,14.191 46.508,41.503 0,19.754 -11.304,39.348 -43.761,39.348 z m 93.898,-8.148 14.867,-39.989 h -30.211 z m 36.723,-71.731 -31.969,79.867 h -9.469 l -32.93,-79.863 8.926,-3.125 10.867,28.32 h 35.153 l 10.551,-28.375 z m 41.371,40.442 h -10.77 v 32.421 h 13.024 c 13.918,0 18.078,-6.804 18.078,-16.117 0,-12.859 -10.047,-16.304 -20.332,-16.304 z m 4.539,39.351 -24.418,0.07 v -80.902 h 9.109 v 34.805 h 7.403 c 5.976,0 9.054,-2.192 12.566,-6.485 l 3.473,-4.449 18.976,-25.84 7.883,4.723 -15.988,21.16 c -3.141,3.899 -7.434,11.457 -12.598,12.684 l 0.082,1.668 c 11.145,1.5 17.645,7.957 17.645,20.996 0,13.156 -8.914,21.57 -24.133,21.57 z m 84.804,0.008 h -9.867 l -22.597,-79.898 8.695,-2.329 19.035,70.149 20.496,-68.695 h 10.145 l 20.836,68.847 18.769,-70.297 8.57,2.321 -22.476,79.902 h -9.922 l -20.863,-70.402 z m 112.597,-76.164 c -6.28,0 -12.72,2.734 -17.19,5.695 l -3.59,-5.871 c 6.51,-3.906 12.96,-5.949 21.37,-5.949 17.57,0 25.73,11.004 25.73,22.758 0,12.308 -8.73,17.5 -17.97,21.937 l -6.79,3.258 c -5.88,2.961 -12.14,6.824 -12.14,14.434 0,10.476 8.63,15.203 16.04,15.203 7.54,0 12.46,-2.653 17.12,-5.676 l 3.11,5.93 c -6.24,3.613 -13.11,5.879 -20.71,5.879 -14.24,0 -24.07,-8.629 -24.07,-20.743 0,-16.898 12.37,-19.949 24.26,-25.691 6.54,-3.16 11.93,-7.109 11.93,-15.363 0,-9.688 -7.1,-15.801 -17.1,-15.801 z m 41.36,76.164 v -7.457 h 23.73 v -73.316 h 8.92 v 73.316 h 23.86 v 7.457 z m 98.53,-8.141 14.87,-39.984 h -30.21 z m 36.72,-71.726 -31.97,79.867 h -9.47 l -32.92,-79.867 8.93,-3.121 10.86,28.32 h 35.15 l 10.55,-28.375 z m 39.36,6.094 h -11.82 v 66.781 l 13.66,-0.055 c 22.41,0 37.11,-11.469 37.11,-32.816 0,-21.207 -14.97,-33.91 -38.95,-33.91 z m 3.75,73.851 -24.68,-0.078 v -80.773 h 21.93 c 27.99,0 46.51,14.191 46.51,41.503 0,19.754 -11.3,39.348 -43.76,39.348 z m 54.76,-0.078 v -7.457 h 23.73 v -73.316 h 8.92 v 73.316 h 23.86 v 7.457 h -56.51"
         style="fill:#231f20;fill-opacity:1;fill-rule:nonzero;stroke:none"
         id="path186" />
    </g>
  </g>
</svg>
